# ProBuilder 5.2.3
# https://unity3d.com/unity/features/worldbuilding/probuilder
# 2/20/2025 8:58:26 PM

mtllib ./Shell_(1).mtl
o Shell (1)

g Shell (1)
v 32 6 4
v 32 6 0
v 32 10 4
v 32 10 0
v 32 6 -4
v 32 10 -4
v 16 14 0
v 16 14 4
v 20 14 0
v 20 14 4
v 16 6 -4
v 16 10 -4
v 20 6 -4
v 20 10 -4
v 16 14 -4
v 20 14 -4
v 16 10 4
v 16 6 4
v 20 10 4
v 20 6 4
v 20 6 0
v 24 6 0
v 24 6 -4
v 24 14 0
v 24 14 4
v 24 10 -4
v 24 14 -4
v 24 6 4
v 24 10 4
v 32 14 0
v 32 14 -4
v 32 14 4
v 28 6 0
v 28 6 -4
v 24 10 -32
v 24 14 -32
v 28 10 -32
v 28 14 -32
v 24 22 0
v 24 22 4
v 28 22 0
v 28 22 4
v 28 6 4
v 24 6 -32
v 28 6 -32
v 24 22 -4
v 28 22 -4
v 32 10 -32
v 32 14 -32
v 32 22 0
v 32 22 4
v 32 6 -32
v 32 22 -4
v 24 14 8
v 24 10 8
v 32 10 8
v 32 14 8
v 28 6 8
v 32 6 8
v 24 6 8
v 32 22 8
v 28 22 8
v 24 22 8
v 24 6 -8
v 24 10 -8
v 28 6 -8
v 24 22 -8
v 28 22 -8
v 32 6 -8
v 24 14 -8
v 32 10 -8
v 32 22 -8
v 32 14 -8
v 32 18 4
v 32 18 0
v 32 18 8
v 24 18 4
v 24 18 8
v 32 18 -4
v 24 18 0
v 28 18 -32
v 24 18 -32
v 32 18 -8
v 32 18 -32
v 24 18 -8
v 24 18 -4
v 24 14 12
v 24 10 12
v 24 18 12
v 24 6 12
v 28 6 12
v 28 22 12
v 24 22 12
v 32 10 12
v 32 14 12
v 32 6 12
v 32 18 12
v 32 22 12
v 24 14 16
v 24 10 16
v 24 18 16
v 24 6 16
v 28 6 16
v 28 22 16
v 24 22 16
v 32 10 16
v 32 14 16
v 32 6 16
v 32 18 16
v 32 22 16
v 24 14 20
v 24 10 20
v 24 18 20
v 24 6 20
v 28 6 20
v 28 22 20
v 24 22 20
v 32 10 20
v 32 14 20
v 32 6 20
v 32 18 20
v 32 22 20
v 24 14 24
v 24 10 24
v 24 18 24
v 24 6 24
v 28 6 24
v 28 22 24
v 24 22 24
v 32 10 24
v 32 14 24
v 32 6 24
v 32 18 24
v 32 22 24
v 24 14 28
v 24 10 28
v 24 18 28
v 24 6 28
v 28 6 28
v 28 22 28
v 24 22 28
v 32 10 28
v 32 14 28
v 32 6 28
v 32 18 28
v 32 22 28
v 24 14 32
v 24 10 32
v 24 6 32
v 28 6 32
v 32 10 32
v 32 14 32
v 32 6 32
v 24 6 -12
v 24 10 -12
v 72 10 -8
v 72 6 -8
v 72 10 -12
v 72 6 -12
v 72 18 -8
v 72 14 -8
v 72 18 -12
v 72 14 -12
v 24 14 -12
v 32 6 -12
v 28 6 -12
v 28 22 -12
v 32 22 -12
v 24 18 -12
v 24 22 -12
v 72 10 -16
v 72 6 -16
v 72 18 -16
v 72 14 -16
v 24 10 -16
v 24 14 -16
v 32 6 -16
v 28 6 -16
v 28 22 -16
v 32 22 -16
v 24 6 -16
v 24 18 -16
v 24 22 -16
v 32 10 -16
v 32 10 -20
v 32 6 -20
v 32 18 -16
v 32 14 -16
v 32 18 -20
v 32 14 -20
v 28 6 -20
v 28 22 -20
v 32 22 -20
v 24 14 -20
v 24 18 -20
v 24 22 -20
v 32 10 -24
v 32 6 -24
v 32 18 -24
v 32 14 -24
v 28 6 -24
v 28 22 -24
v 32 22 -24
v 24 14 -24
v 24 18 -24
v 24 22 -24
v 32 10 -28
v 32 6 -28
v 32 18 -28
v 32 14 -28
v 24 10 -24
v 24 10 -28
v 24 14 -28
v 28 6 -28
v 28 22 -28
v 32 22 -28
v 24 6 -24
v 24 6 -28
v 24 18 -28
v 24 22 -28
v 28 22 -32
v 32 22 -32
v 24 22 -32
v 36 14 -8
v 36 10 -8
v 36 10 -16
v 36 14 -16
v 36 6 -12
v 36 6 -16
v 36 6 -8
v 36 18 -16
v 36 22 -16
v 36 22 -12
v 36 18 -8
v 36 22 -8
v 40 14 -8
v 40 10 -8
v 40 10 -16
v 40 14 -16
v 40 6 -12
v 40 6 -16
v 40 6 -8
v 40 18 -16
v 40 22 -16
v 40 22 -12
v 40 18 -8
v 40 22 -8
v 44 14 -8
v 44 10 -8
v 44 10 -16
v 44 14 -16
v 44 6 -12
v 44 6 -16
v 44 6 -8
v 44 18 -16
v 44 22 -16
v 44 22 -12
v 44 18 -8
v 44 22 -8
v 48 14 -8
v 48 10 -8
v 48 10 -16
v 48 14 -16
v 48 6 -12
v 48 6 -16
v 48 6 -8
v 48 18 -16
v 48 22 -16
v 48 22 -12
v 48 18 -8
v 48 22 -8
v 52 14 -8
v 52 10 -8
v 52 10 -16
v 52 14 -16
v 52 6 -12
v 52 6 -16
v 52 6 -8
v 52 18 -16
v 52 22 -16
v 52 22 -12
v 52 18 -8
v 52 22 -8
v 56 14 -8
v 56 10 -8
v 56 10 -16
v 56 14 -16
v 56 6 -12
v 56 6 -16
v 56 6 -8
v 56 18 -16
v 56 22 -16
v 56 22 -12
v 56 18 -8
v 56 22 -8
v 60 14 -8
v 60 10 -8
v 60 10 -16
v 60 14 -16
v 60 6 -12
v 60 6 -16
v 60 6 -8
v 60 18 -16
v 60 22 -16
v 60 22 -12
v 60 18 -8
v 60 22 -8
v 64 14 -8
v 64 10 -8
v 64 10 -16
v 64 14 -16
v 64 6 -12
v 64 6 -16
v 64 6 -8
v 64 18 -16
v 64 22 -16
v 64 22 -12
v 64 18 -8
v 64 22 -8
v 68 14 -8
v 68 10 -8
v 68 10 -16
v 68 14 -16
v 68 6 -12
v 68 6 -16
v 68 6 -8
v 68 18 -16
v 68 22 -16
v 68 22 -12
v 68 18 -8
v 68 22 -8
v 72 22 -16
v 72 22 -12
v 72 22 -8
v 75.44843 -51.67276 88.29224
v -80.56056 -51.67276 88.29224
v 75.44843 66.34276 88.29224
v -80.56056 66.34276 88.29224
v -80.56056 -51.67276 -86.50612
v -80.56056 66.34276 -86.50612
v 75.44843 -51.67276 -86.50612
v 75.44843 66.34276 -86.50612
v 0 14 4
v -4 14 4
v 0 14 0
v -4 14 0
v 4 14 0
v 4 14 4
v -4 14 -4
v 0 14 -4
v 4 14 -4
v 0 4 -16
v -3 4 -16
v 0 10 -16
v -4 10 -16
v 3 4 -16
v 4 10 -16
v 4 10 39
v 4 6 39
v 8 10 39
v 8 6 39
v 3 2 -16
v 8 2 -16
v 8 6 -16
v 8 14 -4
v 8 14 0
v 8 10 -16
v 8 14 4
v -8 10 -16
v -8 6 -16
v -8 14 4
v -8 14 0
v -3 2 -16
v -8 2 -16
v -3 -2 -16
v -8 -2 -16
v -4 6 39
v -4 10 39
v -8 6 39
v -8 10 39
v -8 14 -4
v 4 14 -8
v 8 14 -8
v -4 14 -8
v 0 14 -8
v -8 14 -8
v 4 14 8
v 0 14 8
v 8 14 8
v -4 14 8
v -8 14 8
v 8 2 16
v 8 -2 16
v 12 2 16
v 12 -2 16
v 12 2 -16
v 12 6 -16
v 12 10 -16
v 8 6 16
v 12 6 16
v 12 14 0
v 12 14 4
v 8 -2 -16
v 12 -2 -16
v 12 14 -4
v 12 14 -8
v 12 14 8
v 8 10 16
v 12 10 16
v 0 14 12
v -4 14 12
v -8 14 12
v -16 2 8
v -16 -2 8
v -16 2 12
v -16 -2 12
v 8 14 12
v 4 14 12
v -16 10 8
v -16 6 8
v -16 10 12
v -16 6 12
v 8 -2 8
v 12 -2 8
v 8 -2 12
v 12 -2 12
v 16 -2 8
v 16 2 8
v 16 -2 12
v 16 2 12
v 16 6 8
v 16 10 8
v 16 6 12
v 16 10 12
v 12 14 12
v -12 6 -16
v -12 2 -16
v -12 14 0
v -12 14 -4
v -12 14 -8
v -12 -2 -16
v -12 14 8
v -12 14 4
v -12 10 -16
v -8 2 16
v -8 6 16
v -12 2 16
v -12 6 16
v -8 -2 8
v -8 -2 12
v -12 -2 8
v -12 -2 12
v -8 -2 16
v -12 -2 16
v -8 10 16
v -12 10 16
v -12 14 12
v 12 -2 -8
v 8 -2 -8
v 12 -2 -12
v 8 -2 -12
v 4 14 -12
v 8 14 -12
v 0 14 -12
v 12 14 -12
v 16 2 -8
v 16 -2 -8
v 16 2 -12
v 16 -2 -12
v 16 10 -8
v 16 6 -8
v 16 10 -12
v 16 6 -12
v -8 14 -12
v -4 14 -12
v -8 -2 -8
v -12 -2 -8
v -8 -2 -12
v -12 -2 -12
v -16 -2 -8
v -16 2 -8
v -16 -2 -12
v -16 2 -12
v -16 6 -8
v -16 10 -8
v -16 6 -12
v -16 10 -12
v -12 14 -12
v 16 14 -8
v 8 14 16
v 12 14 16
v 0 10 16
v 4 10 16
v 0 14 16
v 4 14 16
v 16 14 8
v -4 10 16
v -4 14 16
v 16 14 12
v 8 14 -16
v 4 14 -16
v 16 14 -12
v 12 14 -16
v 4 10 -24
v 0 10 -24
v 4 14 -24
v 0 14 -24
v -4 10 -24
v -4 14 -24
v -4 14 -16
v -8 14 -16
v -12 14 -16
v -16 10 -4
v -16 14 -8
v -16 14 -4
v -16 14 -12
v -16 10 0
v -16 14 0
v -16 10 4
v -16 14 4
v -16 14 8
v -16 14 12
v -8 14 16
v -12 14 16
v -14 6 -14
v -14 2 -14
v -14 14 -14
v -14 10 -14
v -14 -2 -14
v -12 -2 -4
v -12 -2 0
v -16 -2 -4
v -16 -2 0
v -12 -2 4
v -16 -2 4
v -14 2 14
v -14 6 14
v -14 -2 14
v -14 10 14
v -14 14 14
v 14 6 14
v 14 10 14
v 14 2 14
v 14 -2 14
v 14 14 14
v 12 -2 0
v 12 -2 -4
v 16 -2 0
v 16 -2 -4
v 14 6 -14
v 14 10 -14
v 14 2 -14
v 12 -2 4
v 16 -2 4
v 14 -2 -14
v 14 14 -14
v 4 -2 -12
v 3 -2 -16
v 0 -2 -12
v -4 -2 -12
v 0 -2 -16
v 0 14 -16
v 8 6 20
v 8 10 20
v 0 10 20
v -4 10 20
v 4 10 20
v -8 10 20
v -8 6 20
v 8 6 24
v 8 10 24
v 0 10 24
v -4 10 24
v 8 2 20
v 8 2 24
v 4 10 24
v -8 2 20
v -8 6 24
v -8 2 24
v -8 10 24
v 0 4 -20
v 3 4 -20
v 0 -2 -20
v -3 -2 -20
v -3 2 -20
v -3 4 -20
v -3 2 -24
v -3 4 -24
v 0 4 -24
v 3 4 -24
v 0 -2 -24
v -3 -2 -24
v 0 -2 -28
v -4 -2 -28
v 3 -2 -24
v 4 -2 -28
v 8 6 -24
v 8 2 -24
v 8 6 -28
v 8 2 -28
v 8 -2 -24
v 8 -2 -28
v 0 10 -28
v 4 10 -28
v -8 -2 -24
v -8 2 -24
v -8 -2 -28
v -8 2 -28
v -8 6 -24
v -8 6 -28
v -4 10 -28
v 0 -2 -32
v -4 -2 -32
v 4 -2 -32
v 0 10 -32
v 4 10 -32
v -8 -2 -32
v -8 2 -32
v -8 6 -32
v -4 10 -32
v -8 2 -36
v -8 6 -36
v 0 10 -36
v 4 10 -36
v -4 10 -36
v -8 -2 -36
v -8 10 -24
v -8 10 -28
v -8 10 -32
v -8 10 -36
v -4 6 -36
v -4 2 -36
v -4 -2 -36
v 4 2 -36
v 4 6 -36
v 8 2 -36
v 8 6 -36
v 4 -2 -36
v 8 -2 -32
v 8 -2 -36
v 8 10 -36
v 8 10 -32
v 8 10 -28
v 3 2 -24
v 8 10 -24
v 0 6 -36
v 7.9875 6 -32
v 0 -2 12
v 4 -2 12
v 4 -2 14
v 4 -2 16
v 0 -2 16
v -6 -2 12
v -6 -2 14
v -8 -2 14
v -4 -2 12
v -4 -2 14
v -4 -2 16
v -6 -2 16
v 6 -2 12
v 6 -2 14
v 8 -2 14
v 6 -2 16
v 0 2 16
v -2 2 16
v -4 2 16
v 4 2 16
v 2 2 16
v 2 2 18
v 0 2 18
v 4 2 18
v 4 2 20
v 2 2 20
v 0 2 20
v 6 2 16
v 6 2 18
v 8 2 18
v 6 2 20
v -8 2 18
v -6 2 16
v -6 2 18
v -4 2 18
v -4 2 20
v -6 2 20
v -2 2 18
v -2 2 20
v 4 2 24
v 0 2 24
v -4 2 24
v 6 -2 -8
v 8 -2 -6
v 6 -2 -6
v -8 -2 -6
v -6 -2 -8
v -6 -2 -6
v -6 -2 8
v -8 -2 6
v -6 -2 6
v 8 -2 6
v 6 -2 8
v 6 -2 6
v 8 -2 4
v 8 -2 2
v 8 -2 0
v 8 -2 -2
v 8 -2 -4
v -4 -2 8
v -2 -2 8
v 0 -2 8
v 2 -2 8
v 4 -2 8
v -8 -2 -4
v -8 -2 0
v -8 -2 2
v -8 -2 4
v -8 -2 -2
v 4 -2 -8
v 0 -2 -8
v -2 -2 -8
v -4 -2 -8
v 2 -2 -8
v 4 -2 -2
v 5 -2 -2
v 5 -2 -1
v 4 -2 -1
v 6 -2 -2
v 6 -2 -1
v 6 -2 0
v 5 -2 0
v 4 -2 0
v 4 -2 -4
v 5 -2 -4
v 5 -2 -3
v 4 -2 -3
v 6 -2 -4
v 6 -2 -3
v 4 -2 2
v 5 -2 2
v 5 -2 3
v 4 -2 3
v 6 -2 2
v 6 -2 3
v 6 -2 4
v 5 -2 4
v 4 -2 4
v 5 -2 1
v 4 -2 1
v 6 -2 1
v -6 -2 -4
v -5 -2 -4
v -5 -2 -3
v -6 -2 -3
v -4 -2 -4
v -4 -2 -3
v -4 -2 -2
v -5 -2 -2
v -6 -2 -2
v -5 -2 -1
v -6 -2 -1
v -4 -2 -1
v -4 -2 0
v -5 -2 0
v -6 -2 0
v -5 -2 1
v -6 -2 1
v -4 -2 1
v -4 -2 2
v -5 -2 2
v -6 -2 2
v -5 -2 3
v -6 -2 3
v -4 -2 3
v -4 -2 4
v -5 -2 4
v -6 -2 4
v 6 -2 -5
v 4 -2 -6
v 5 -2 -6
v 5 -2 -5
v 4 -2 -5
v -2 -2 -6
v -1 -2 -6
v -1 -2 -5
v -2 -2 -5
v 0 -2 -6
v 0 -2 -5
v 0 -2 -4
v -1 -2 -4
v -2 -2 -4
v -4 -2 -6
v -3 -2 -6
v -3 -2 -5
v -4 -2 -5
v -3 -2 -4
v 2 -2 -6
v 3 -2 -6
v 3 -2 -5
v 2 -2 -5
v 3 -2 -4
v 2 -2 -4
v 1 -2 -6
v 1 -2 -5
v 1 -2 -4
v -5 -2 -6
v -5 -2 -5
v -6 -2 -5
v -3 -2 4
v -3 -2 5
v -4 -2 5
v -2 -2 4
v -2 -2 5
v -2 -2 6
v -3 -2 6
v -4 -2 6
v -1 -2 4
v -1 -2 5
v 0 -2 4
v 0 -2 5
v 0 -2 6
v -1 -2 6
v -6 -2 5
v -5 -2 5
v -5 -2 6
v 1 -2 4
v 1 -2 5
v 2 -2 4
v 2 -2 5
v 2 -2 6
v 1 -2 6
v 3 -2 4
v 3 -2 5
v 4 -2 5
v 4 -2 6
v 3 -2 6
v 5 -2 5
v 6 -2 5
v 5 -2 6
v 4 -3 4
v 4 -3 0
v 4 -3 -4
v -4 -3 -4
v -4 -3 0
v 0 -3 -4
v 0 -3 4
v -4 -3 4
v 16 6 0
v 16 6 -2
v 16 6 2
v 16 2 0
v 16 2 2
v 16 2 4
v 16 2 -4
v 16 2 -2
v 16 4 2
v 16 4 4
v 16 4 0
v 16 4 -2
v 16 4 -4
v 16 2 -6
v 16 4 -6
v 16 6 -6
v 16 4 -8
v 16 4 6
v 16 2 6
v 16 6 6
v 16 4 8
v -16 2 4
v -16 2 2
v -16 2 0
v -16 2 -2
v -16 2 -4
v -16 4 -2
v -16 4 -4
v -16 4 0
v -16 6 0
v -16 6 -2
v -16 6 -4
v -16 4 2
v -16 4 4
v -16 6 4
v -16 6 2
v -16 4 -6
v -16 2 -6
v -16 6 -6
v -16 4 -8
v -16 2 6
v -16 4 6
v -16 6 6
v -16 4 8
v 24 8 -16
v 24 10 -20
v 24 10 -18
v 24 6 -18
v 24 6 -20
v 24 10 -22
v 24 8 -24
v 24 8 -22
v 24 6 -22
v 24 8 -18
v 3 0 -16
v 3 -2 -20
v 3 -2 -18
v 3 0 -18
v 3 2 -18
v 3 2 -20
v 3 -2 -22
v 3 0 -24
v 3 0 -22
v 3 2 -22
v 7.975 2 -32
v 22 6 -18
v 22 10 -18
v 3.5 6 -18
v 3.5 6 -22
v 3.5 10 -18
v 3.5 10 -22
v 22 6 -22
v 22 10 -22
v 18 10 -18
v 18 10 -22
v 18 6 -22
v 22 4 -22
v 22 4 -18
v 18 1.75 -22
v 18 1.75 -18
v 18 6 -18
v 14 10 -18
v 14 10 -22
v 14 6 -22
v 14 1.75 -22
v 14 1.75 -18
v 14 6 -18
v 10 10 -18
v 10 10 -22
v 10 6 -22
v 14 0 -22
v 14 0 -18
v 10 -2 -22
v 10 -2 -18
v 10 6 -18
v 6 10 -18
v 6 10 -22
v 6 6 -22
v 6 -2 -22
v 6 -2 -18
v 6 6 -18
v 6 2 -22
v 10 2 -22
v 10 2 -18
v 6 2 -18
v 3.5 2 -18
v 3.5 2 -22
v 3.5 -2 -18
v 3.5 -2 -22
v -4 2 28
v 0 2 28
v -8 2 28
v 8 6 28
v 8 10 28
v -8 6 28
v 4 2 28
v 0 10 28
v -4 10 28
v 8 2 28
v 4 10 28
v -8 10 28
v -4 2 32
v 0 2 32
v -8 2 32
v 8 6 32
v 8 10 32
v -8 6 32
v 4 2 32
v 0 10 32
v -4 10 32
v 8 2 32
v 4 10 32
v -8 10 32
v -4 2 36
v 0 2 36
v -8 2 36
v 8 6 36
v 8 10 36
v -8 6 36
v 4 2 36
v 0 10 36
v -4 10 36
v 8 2 36
v 4 10 36
v -8 10 36
v -8 2 39
v -4 2 39
v 0 10 39
v 4 2 39
v 8 2 39
v -2 2 -36
v -2 0 -36
v -4 0 -36
v -2 2 -37
v 0 2 -37
v 0 0 -37
v -2 0 -37
v 0 -2 -37
v -2 -2 -37
v -2 -2 -36
v 2 0 -37
v 2 -2 -37
v 2 2 -37
v 2 2 -36
v 4 0 -36
v 2 0 -36
v 2 -2 -36
v 0 2 -36
v 0 -2 -36
v 0 10 -20
v -4 10 -20
v 0 14 -20
v 4 14 -20
v -4 14 -20
v 4 10 -20
v -2 2 39
v -2 4 39
v -4 4 39
v -2 2 40.625
v 0 2 40.625
v 0 4 40.625
v -2 4 40.625
v 0 6 40.625
v -2 6 40.625
v -2 6 39
v 2 2 40.625
v 2 4 40.625
v 2 2 39
v 4 4 39
v 2 4 39
v 2 6 39
v 2 6 40.625
v 0 6 39
v 0 2 39
v 0 -5 4
v -2 -5 4
v -1.5 -5 1.5
v 0 -5 2
v -4 -5 4
v -4 -5 2
v -4 -5 0
v -2 -5 0
v -2 -9 0
v 0 -9 0
v 0 -9 2
v -1.5 -9 1.5
v 1.5 -5 1.5
v 2 -5 4
v 2 -9 0
v 1.5 -9 1.5
v 2 -5 0
v 4 -5 0
v 4 -5 2
v 4 -5 4
v 1.5 -5 -1.5
v 4 -5 -2
v 0 -9 -2
v 1.5 -9 -1.5
v 0 -5 -2
v 0 -5 -4
v 2 -5 -4
v 4 -5 -4
v -1.5 -9 -1.5
v -4 -5 -2
v -1.5 -5 -1.5
v -4 -5 -4
v -2 -5 -4
v 24 14 36
v 24 10 36
v 32 10 36
v 32 14 36
v 28 6 36
v 32 6 36
v 24 6 36
v 28 14 32
v 28 14 36
v 24 14 40
v 24 10 40
v 32 10 40
v 32 14 40
v 28 14 40
v 28 18 28
v 28 14 28
v 26 10 40
v 28 10 40
v 24 8 40
v 26 8 40
v 24 6 40
v 26 6 40
v 26 6 40.5
v 28 6 40.5
v 28 8 40.5
v 26 8 40.5
v 28 10 40.5
v 26 10 40.5
v 30 10 40
v 30 8 40.5
v 30 10 40.5
v 30 6 40.5
v 30 6 40
v 32 6 40
v 32 8 40
v 30 8 40
v 28 6 40

vt 4 6
vt 0 6
vt 4 10
vt 0 10
vt -4 6
vt -4 10
vt 16 0
vt 16 4
vt 20 0
vt 20 4
vt 16 6
vt 16 10
vt 20 6
vt 20 10
vt 16 -4
vt 20 -4
vt -16 10
vt -16 6
vt -20 10
vt -20 6
vt -20 0
vt -20 -4
vt -24 0
vt -24 -4
vt 24 0
vt 24 4
vt 24 6
vt 24 10
vt 24 -4
vt -20 4
vt -24 4
vt -24 10
vt -24 6
vt 20 14
vt 16 14
vt -16 14
vt -20 14
vt 24 14
vt 0 14
vt -4 14
vt -24 14
vt 4 14
vt -28 0
vt -28 -4
vt 28 10
vt 28 14
vt 28 0
vt 28 4
vt -28 4
vt 28 6
vt 28 -4
vt -32 0
vt -32 -4
vt 32 10
vt 32 14
vt 32 0
vt 32 4
vt -32 4
vt 32 6
vt 32 -4
vt -8 14
vt -8 10
vt 8 10
vt 8 14
vt -28 8
vt -32 8
vt 8 6
vt -8 6
vt 32 8
vt 28 8
vt -24 8
vt 24 8
vt -28 -8
vt -24 -8
vt 24 -8
vt 28 -8
vt -32 -8
vt 32 -8
vt 4 18
vt 0 18
vt 8 18
vt -4 18
vt -8 18
vt 28 18
vt 24 18
vt 32 18
vt -12 14
vt -12 10
vt -12 18
vt -24 12
vt -28 12
vt 28 12
vt 24 12
vt -12 6
vt 12 10
vt 12 14
vt -32 12
vt 12 6
vt 12 18
vt 32 12
vt -16 18
vt -24 16
vt -28 16
vt 28 16
vt 24 16
vt -32 16
vt 16 18
vt 32 16
vt -20 18
vt -24 20
vt -28 20
vt 28 20
vt 24 20
vt -32 20
vt 20 18
vt 32 20
vt -24 18
vt -24 24
vt -28 24
vt 28 24
vt 24 24
vt -32 24
vt 32 24
vt -28 14
vt -28 10
vt -28 18
vt -24 28
vt -28 28
vt 28 28
vt 24 28
vt -28 6
vt -32 28
vt 32 28
vt -32 14
vt -32 10
vt -24 32
vt -28 32
vt -32 6
vt -32 32
vt -32 -12
vt -28 -12
vt 28 -12
vt 32 -12
vt -24 -12
vt 24 -12
vt -32 -16
vt -28 -16
vt 28 -16
vt 32 -16
vt -24 -16
vt 24 -16
vt -32 -20
vt -28 -20
vt 28 -20
vt 32 -20
vt 24 -20
vt -32 -24
vt -28 -24
vt 28 -24
vt 32 -24
vt 24 -24
vt -32 -28
vt -28 -28
vt 28 -28
vt 32 -28
vt -24 -24
vt -24 -28
vt 24 -28
vt -32 18
vt -32 -32
vt -28 -32
vt 28 -32
vt 32 -32
vt -24 -32
vt 24 -32
vt -36 14
vt -36 10
vt 36 10
vt 36 14
vt -36 -12
vt -36 -16
vt 36 6
vt -36 6
vt 36 18
vt -36 -8
vt 36 -16
vt 36 -12
vt -36 18
vt 36 -8
vt -40 14
vt -40 10
vt 40 10
vt 40 14
vt -40 -12
vt -40 -16
vt 40 6
vt -40 6
vt 40 18
vt -40 -8
vt 40 -16
vt 40 -12
vt -40 18
vt 40 -8
vt -44 14
vt -44 10
vt 44 10
vt 44 14
vt -44 -12
vt -44 -16
vt 44 6
vt -44 6
vt 44 18
vt -44 -8
vt 44 -16
vt 44 -12
vt -44 18
vt 44 -8
vt -48 14
vt -48 10
vt 48 10
vt 48 14
vt -48 -12
vt -48 -16
vt 48 6
vt -48 6
vt 48 18
vt -48 -8
vt 48 -16
vt 48 -12
vt -48 18
vt 48 -8
vt -52 14
vt -52 10
vt 52 10
vt 52 14
vt -52 -12
vt -52 -16
vt 52 6
vt -52 6
vt 52 18
vt -52 -8
vt 52 -16
vt 52 -12
vt -52 18
vt 52 -8
vt -56 14
vt -56 10
vt 56 10
vt 56 14
vt -56 -12
vt -56 -16
vt 56 6
vt -56 6
vt 56 18
vt -56 -8
vt 56 -16
vt 56 -12
vt -56 18
vt 56 -8
vt -60 14
vt -60 10
vt 60 10
vt 60 14
vt -60 -12
vt -60 -16
vt 60 6
vt -60 6
vt 60 18
vt -60 -8
vt 60 -16
vt 60 -12
vt -60 18
vt 60 -8
vt -64 14
vt -64 10
vt 64 10
vt 64 14
vt -64 -12
vt -64 -16
vt 64 6
vt -64 6
vt 64 18
vt -64 -8
vt 64 -16
vt 64 -12
vt -64 18
vt 64 -8
vt -68 14
vt -68 10
vt 68 10
vt 68 14
vt -68 -12
vt -68 -16
vt 68 6
vt -68 6
vt 68 18
vt -68 -8
vt 68 -16
vt 68 -12
vt -68 18
vt 68 -8
vt -72 14
vt -72 10
vt 72 10
vt 72 14
vt -72 -12
vt -72 -16
vt 72 6
vt -72 6
vt 72 18
vt -72 -8
vt 72 -16
vt 72 -12
vt -72 18
vt 72 -8
vt 75.44843 -49.67276
vt -80.56056 -49.67276
vt 75.44843 68.34276
vt -80.56056 68.34276
vt 88.29224 -49.67276
vt -86.50612 -49.67276
vt 88.29224 68.34276
vt -86.50612 68.34276
vt 80.56056 -49.67276
vt -75.44843 -49.67276
vt 80.56056 68.34276
vt -75.44843 68.34276
vt 86.50612 -49.67276
vt -88.29224 -49.67276
vt 86.50612 68.34276
vt -88.29224 68.34276
vt -75.44843 88.29224
vt 80.56056 88.29224
vt -75.44843 -86.50612
vt 80.56056 -86.50612
vt 75.44843 -86.50612
vt -80.56056 -86.50612
vt 75.44843 88.29224
vt -80.56056 88.29224
vt 0 4
vt -4 4
vt 0 0
vt -4 0
vt 4 0
vt 4 4
vt -4 -4
vt 0 -4
vt 4 -4
vt -3 6
vt 0 12
vt -4 12
vt 3 6
vt 4 12
vt -4 8
vt -8 12
vt -8 8
vt 3 4
vt 8 4
vt 8 8
vt 8 -4
vt 8 0
vt 8 12
vt -8 4
vt -8 0
vt -3 4
vt -3 0
vt 4 8
vt -8 -4
vt 4 -8
vt 8 -8
vt -4 -8
vt 0 -8
vt -8 -8
vt 0 8
vt -12 4
vt -12 0
vt 12 4
vt 12 8
vt 12 12
vt -12 8
vt 12 0
vt 12 -4
vt 12 -8
vt -12 12
vt -12 -4
vt -12 -8
vt -12 -12
vt -8 -12
vt 4 -12
vt 8 -12
vt 0 -12
vt 12 -12
vt -4 -12
vt -4 16
vt -8 16
vt -12 16
vt 0 16
vt 8 16
vt 4 16
vt 12 16
vt 2.828427 8
vt 2.828427 4
vt 2.828427 16
vt 2.828427 12
vt 2.828427 0
vt -16 -8
vt -16 -12
vt 16 -12
vt 16 -8
vt 16 8
vt -2.828427 4
vt -2.828427 8
vt 16 12
vt -2.828427 0
vt -2.828427 12
vt -16 8
vt -16 4
vt -2.828427 16
vt -16 12
vt -16 0
vt -16 -4
vt 14 14
vt -14 14
vt -8 -16
vt -3 -16
vt 4 -16
vt 8 -16
vt 0 -16
vt 3 -16
vt 12 -16
vt -12 -16
vt -14 -14
vt -4 -16
vt 20 8
vt 20 12
vt 0 20
vt -4 20
vt 4 20
vt 8 20
vt -8 20
vt -20 12
vt -20 8
vt 0 24
vt -4 24
vt 4 24
vt 8 24
vt -8 24
vt 0 -20
vt 3 -20
vt -3 -20
vt 36 22
vt 32 22
vt 28 22
vt -24 22
vt -28 22
vt 24 22
vt -20 22
vt 20 22
vt -32 22
vt 4 22
vt 0 22
vt 16 22
vt -16 22
vt 12 22
vt 8 22
vt -4 22
vt -8 22
vt -12 22
vt -36 22
vt -40 22
vt 40 22
vt -44 22
vt 44 22
vt -48 22
vt 48 22
vt -52 22
vt 52 22
vt -56 22
vt 56 22
vt -60 22
vt 60 22
vt -64 22
vt 64 22
vt -68 22
vt -72 22
vt 72 22
vt 68 22
vt 0 -18
vt 3 -18
vt 0 -22
vt 3 -22
vt -3 -18
vt -3 -22
vt 0 -26
vt 4 -26
vt -4 -26
vt 4 -22
vt -4 -22
vt 0 -30
vt 4 -30
vt -4 -30
vt 36 4
vt 36 8
vt 0 -34
vt 4 -34
vt -4 -34
vt 36 0
vt 3 0
vt 8 -26
vt 8 -22
vt -8 -22
vt -8 -26
vt 8 -30
vt -8 -30
vt -8 -34
vt 8 -34
vt -32.0248 8.024618
vt -36.02482 8.024618
vt -32.02484 12.02464
vt -36.02482 12.0246
vt 36 12
vt 6 12
vt 6 14
vt 6 16
vt -6 12
vt -6 14
vt -6 16
vt 2 4
vt -2 4
vt -2 16
vt -2 18
vt -2 20
vt -6 18
vt -6 20
vt 18 4
vt -18 4
vt 6 18
vt 6 20
vt 2 16
vt 2 18
vt 2 20
vt -6 4
vt -6 0
vt 6 4
vt 6 0
vt -6 -8
vt -8 -6
vt -6 -6
vt 8 -6
vt 6 -8
vt 6 -6
vt 6 8
vt 6 6
vt -6 8
vt -6 6
vt -8 2
vt -8 -2
vt 2 8
vt -2 8
vt 8 2
vt 8 -2
vt 2 -8
vt -2 -8
vt -4 -2
vt -5 -2
vt -5 -1
vt -4 -1
vt -6 -2
vt -6 -1
vt -5 0
vt -5 -4
vt -5 -3
vt -4 -3
vt -6 -4
vt -6 -3
vt -4 2
vt -5 2
vt -5 3
vt -4 3
vt -6 2
vt -6 3
vt -5 4
vt -5 1
vt -4 1
vt -6 1
vt 6 -4
vt 5 -4
vt 5 -3
vt 6 -3
vt 4 -3
vt 4 -2
vt 5 -2
vt 6 -2
vt 5 -1
vt 6 -1
vt 4 -1
vt 5 0
vt 5 1
vt 6 1
vt 4 1
vt 4 2
vt 5 2
vt 6 2
vt 5 3
vt 6 3
vt 4 3
vt 5 4
vt -6 -5
vt -4 -6
vt -5 -6
vt -5 -5
vt -4 -5
vt 2 -6
vt 1 -6
vt 1 -5
vt 2 -5
vt 0 -6
vt 0 -5
vt 1 -4
vt 2 -4
vt 4 -6
vt 3 -6
vt 3 -5
vt 4 -5
vt 3 -4
vt -2 -6
vt -3 -6
vt -3 -5
vt -2 -5
vt -3 -4
vt -2 -4
vt -1 -6
vt -1 -5
vt -1 -4
vt 5 -6
vt 5 -5
vt 6 -5
vt 3 5
vt 4 5
vt 2 5
vt 2 6
vt 1 4
vt 1 5
vt 0 5
vt 1 6
vt 6 5
vt 5 5
vt 5 6
vt -1 4
vt -1 5
vt -2 5
vt -2 6
vt -1 6
vt -3 5
vt -4 5
vt -5 5
vt -6 5
vt -5 6
vt 0 -3
vt 0 -2
vt 1 -2
vt 2 -2
vt 3 -2
vt -3 -2
vt -2 -2
vt -1 -2
vt -16 -2
vt -16 2
vt 18 10
vt -24 -18
vt -24 -20
vt 22 10
vt 22 8
vt 22 6
vt -24 -22
vt 18 6
vt 18 8
vt 3 2
vt -18 2
vt -18 0
vt -22 0
vt -24 2
vt -22 2
vt -22 4
vt -3 2
vt -32 12.02495
vt -32 8.024931
vt -28 12.02495
vt -28 8.02497
vt -27.94946 2
vt -27.94946 6
vt -31.94953 2
vt -31.94945 6
vt -36.02482 8
vt -36.02482 4
vt -32.0248 8
vt -32.02477 4
vt -27.94946 -2
vt -31.94938 -2
vt -32.04922 3.951371
vt -36.04929 3.951371
vt -32.04937 -0.04870725
vt -36.04929 -0.04855108
vt 2 0
vt -2 0
vt 3.013826 0
vt 3.013826 4
vt 7.603216 0
vt 7.603216 4
vt -10 4
vt -10 0
vt 10 0
vt 10 4
vt -14 4
vt -14 0
vt 11.62755 0
vt 11.62755 4
vt 16.09969 0
vt 16.09969 4
vt 14 0
vt 14 4
vt 18 0
vt -18 -4
vt -14 -4
vt 14 -4
vt 18 -4
vt -10 -4.25
vt 10 -4.25
vt -6 -4.25
vt 6 -4.25
vt 0 -4.25
vt 4 -4.25
vt -14 -8
vt -10 -6
vt 10 -6
vt 14 -8
vt -18 -8
vt 18 -8
vt 20.5 0
vt 20.5 4
vt 20.5 -4
vt -20.5 0
vt -20.5 -4
vt 20.5 -8
vt -20.5 4
vt -20.5 -8
vt -21 4
vt -21 0
vt 21 -8
vt 21 -4
vt -21 -4
vt -21 -8
vt 21 0
vt 21 4
vt 4 26
vt 0 26
vt 4 30
vt 0 30
vt 8 26
vt 8 30
vt -4 26
vt -4 30
vt -8 26
vt -8 30
vt 4 34
vt 0 34
vt 8 34
vt -4 34
vt -8 34
vt 4 38
vt 0 38
vt 8 38
vt -36 8
vt -36 4
vt -4 38
vt -8 38
vt -36 12
vt 8 41
vt 4 41
vt 39 8
vt 39 12
vt -39 8
vt -39 4
vt 0 41
vt -4 41
vt -8 41
vt 39 4
vt -39 12
vt -2 2
vt 0 2
vt 2 2
vt 2 -34
vt -2 -34
vt 0 -35
vt 2 -35
vt 36 2
vt 37 0
vt 37 2
vt -36 2
vt -36 0
vt -37 2
vt -37 0
vt 37 4
vt -37 4
vt -2 -35
vt 0 -14
vt 4 -14
vt 4 -18
vt 16 16
vt 20 16
vt -4 -14
vt -4 -18
vt -16 16
vt -20 16
vt 2 41
vt -2 41
vt 39 6
vt 40.625 4
vt 40.625 6
vt -39 6
vt -40.625 8
vt -40.625 6
vt 2 42.625
vt 0 42.625
vt -2 42.625
vt 40.625 8
vt -40.625 4
vt 1.5 1.5
vt -1.5 1.5
vt -1.5 -1.5
vt 1.5 -1.5
vt -0.9486833 -5
vt 0.6324556 -5
vt -0.9486833 -9
vt 0.6324556 -9
vt -0.6324556 -5
vt 0.9486833 -5
vt -0.6324556 -9
vt 0.9486833 -9
vt -28 36
vt -32 36
vt 32 32
vt 28 32
vt 32 36
vt 28 36
vt -24 36
vt 24 32
vt 24 36
vt 32 40
vt 28 40
vt 24 40
vt -26 10
vt -26 8
vt -26 6
vt -30 10
vt -30 8
vt -30 6
vt -32 40
vt -30 40
vt -28 40
vt 40 8
vt -40 8
vt -26 40
vt -24 40
vt 40.5 6
vt 40.5 8
vt -40.5 10
vt -40.5 8
vt -26 40.5
vt -28 40.5
vt -30 40.5
vt 40.5 10
vt 30 40
vt 30 40.5
vt 28 40.5
vt 26 40
vt 26 40.5
vt -40.5 6

vn -1 0 0
vn 0 -1 0
vn 0 0 1
vn 0 0 -1
vn 0 1 0
vn 1 0 0
vn 0.7071068 0 0.7071068
vn 0.7071068 0 -0.7071068
vn -0.7071068 0 -0.7071068
vn -0.7071068 0 0.7071068
vn -0.9999902 0.003124922 -0.003124922
vn -0.9999951 0.001562461 -0.001562461
vn -0.9999951 0.003124937 0
vn -0.9999951 0.001562468 0.001562468
vn -0.9999951 0 0.003124937
vn -0.9999804 0 0.006249783
vn -0.9999853 0.001562461 0.004687352
vn -0.9999902 0.003124922 0.003124922
vn -0.9999951 0 -0.003124937
vn -0.9999853 0.001562438 -0.004687345
vn -0.9999756 0.003124876 -0.006249752
vn -0.9999804 -0.003124891 0.003124891
vn -0.9999804 -0.006249783 0
vn -0.999961 -0.006249661 -0.006249661
vn -0.9999804 -0.00312483 -0.00312483
vn -0.4902613 0.8715755 0
vn -0.4472136 0.8944272 0
vn 0.3162278 0 0.9486833
vn -0.9486833 0 -0.3162278
vn 0.9486833 0 0.3162278
vn 0.3162278 0 -0.9486833
vn -0.3162278 0 0.9486833
vn -0.9486833 0 0.3162278
vn 0.9486833 0 -0.3162278
vn -0.3162278 0 -0.9486833

usemtl IndustrialWall
f 399/410/1 392/8/1 677/535/1
f 677/535/1 574/10/1 563/434/1
f 399/410/1 677/535/1 563/434/1
f 569/442/6 679/536/6 446/416/6
f 569/442/6 577/30/6 679/536/6
f 679/536/6 445/417/6 446/416/6
f 850/528/1 554/344/1 851/345/1
f 554/344/1 850/528/1 548/342/1
f 850/528/1 849/340/1 548/342/1
f 853/529/1 548/342/1 849/340/1
f 548/342/1 853/529/1 549/343/1
f 853/529/1 852/341/1 549/343/1
f 859/542/1 549/343/1 852/341/1
f 549/343/1 859/542/1 467/364/1
f 859/542/1 466/363/1 467/364/1
f 470/355/1 471/356/1 861/554/1
f 861/554/1 11/354/1 12/351/1
f 470/355/1 861/554/1 12/351/1
f 864/544/1 427/361/1 428/358/1
f 427/361/1 864/544/1 554/344/1
f 864/544/1 851/345/1 554/344/1
f 17/353/1 18/367/1 865/552/1
f 865/552/1 431/359/1 432/362/1
f 17/353/1 865/552/1 432/362/1
f 866/67/1 428/358/1 430/377/1
f 433/378/1 866/67/1 430/377/1
f 433/378/1 431/359/1 866/67/1
f 468/375/1 466/363/1 862/68/1
f 473/380/1 468/375/1 862/68/1
f 473/380/1 862/68/1 471/356/1
f 533/342/6 869/340/6 868/529/6
f 533/342/6 868/529/6 535/343/6
f 867/341/6 535/343/6 868/529/6
f 532/344/6 871/345/6 870/528/6
f 532/344/6 870/528/6 533/342/6
f 869/340/6 533/342/6 870/528/6
f 517/350/6 876/558/6 513/353/6
f 517/350/6 875/374/6 876/558/6
f 876/558/6 877/367/6 513/353/6
f 519/351/6 881/559/6 517/350/6
f 519/351/6 880/354/6 881/559/6
f 881/559/6 875/374/6 517/350/6
f 480/361/6 481/358/6 883/544/6
f 480/361/6 883/544/6 532/344/6
f 871/345/6 532/344/6 883/544/6
f 513/353/6 884/552/6 485/362/6
f 513/353/6 877/367/6 884/552/6
f 884/552/6 484/359/6 485/362/6
f 535/343/6 867/341/6 886/542/6
f 535/343/6 886/542/6 414/364/6
f 413/363/6 414/364/6 886/542/6
f 419/355/6 888/554/6 519/351/6
f 419/355/6 420/356/6 888/554/6
f 888/554/6 880/354/6 519/351/6
f 889/68/6 420/356/6 422/380/6
f 415/375/6 889/68/6 422/380/6
f 415/375/6 413/363/6 889/68/6
f 890/410/6 175/12/6 155/95/6
f 154/98/6 890/410/6 155/95/6
f 154/98/6 181/11/6 890/410/6
f 176/35/6 892/669/6 194/34/6
f 176/35/6 175/12/6 892/669/6
f 892/669/6 891/14/6 194/34/6
f 194/34/6 895/672/6 204/38/6
f 194/34/6 891/14/6 895/672/6
f 895/672/6 211/28/6 204/38/6
f 211/28/6 896/72/6 212/45/6
f 896/72/6 218/50/6 212/45/6
f 896/72/6 217/27/6 218/50/6
f 900/678/3 558/508/3 403/361/3
f 363/358/3 900/678/3 403/361/3
f 363/358/3 362/357/3 900/678/3
f 582/20/1 905/30/1 904/536/1
f 904/536/1 362/417/1 356/18/1
f 582/20/1 904/536/1 356/18/1
f 590/33/1 644/31/1 909/684/1
f 909/684/1 905/30/1 582/20/1
f 590/33/1 909/684/1 582/20/1
f 907/685/4 644/365/4 598/363/4
f 601/364/4 907/685/4 598/363/4
f 601/364/4 595/366/4 907/685/4
f 631/354/3 632/341/3 996/529/3
f 996/529/3 1013/340/3 646/374/3
f 631/354/3 996/529/3 646/374/3
f 646/374/3 1013/340/3 1009/528/3
f 1009/528/3 634/345/3 635/367/3
f 646/374/3 1009/528/3 635/367/3
f 626/364/3 633/343/3 998/576/3
f 621/363/3 626/364/3 998/576/3
f 621/363/3 998/576/3 632/341/3
f 1010/601/3 638/344/3 640/361/3
f 636/358/3 1010/601/3 640/361/3
f 636/358/3 634/345/3 1010/601/3
f 993/350/4 1030/558/4 378/353/4
f 993/350/4 1038/374/4 1030/558/4
f 1030/558/4 377/367/4 378/353/4
f 358/351/4 1036/559/4 993/350/4
f 358/351/4 359/354/4 1036/559/4
f 1036/559/4 1038/374/4 993/350/4
f 1034/5/4 359/354/4 361/356/4
f 995/363/4 1034/5/4 361/356/4
f 995/363/4 994/341/4 1034/5/4
f 377/367/4 1023/1/4 379/359/4
f 1023/1/4 991/358/4 379/359/4
f 1023/1/4 992/345/4 991/358/4
f 1086/124/4 1089/852/4 1082/41/4
f 1086/124/4 1090/125/4 1089/852/4
f 1089/852/4 1083/32/4 1082/41/4
f 1085/134/4 1101/855/4 1086/124/4
f 1085/134/4 1084/135/4 1101/855/4
f 1101/855/4 1090/125/4 1086/124/4
f 1078/182/1 1106/196/1 1107/861/1
f 1075/178/1 1078/182/1 1107/861/1
f 1075/178/1 1107/861/1 1084/192/1
f 1083/191/6 1091/862/6 1074/177/6
f 1091/862/6 1079/183/6 1074/177/6
f 1091/862/6 1093/197/6 1079/183/6
f 4/4/1 2/2/1 1/1/1
f 1/1/1 3/3/1 4/4/1
f 6/6/1 5/5/1 2/2/1
f 2/2/1 4/4/1 6/6/1
f 14/14/3 12/12/3 11/11/3
f 11/11/3 13/13/3 14/14/3
f 20/20/4 18/18/4 17/17/4
f 17/17/4 19/19/4 20/20/4
f 26/28/3 14/14/3 13/13/3
f 13/13/3 23/27/3 26/28/3
f 28/33/4 20/20/4 19/19/4
f 19/19/4 29/32/4 28/33/4
f 15/35/3 12/12/3 14/14/3
f 14/14/3 16/34/3 15/35/3
f 10/37/4 19/19/4 17/17/4
f 17/17/4 8/36/4 10/37/4
f 16/34/3 14/14/3 26/28/3
f 26/28/3 27/38/3 16/34/3
f 31/40/1 6/6/1 4/4/1
f 4/4/1 30/39/1 31/40/1
f 25/41/4 29/32/4 19/19/4
f 19/19/4 10/37/4 25/41/4
f 30/39/1 4/4/1 3/3/1
f 3/3/1 32/42/1 30/39/1
f 38/46/3 36/38/3 35/28/3
f 35/28/3 37/45/3 38/46/3
f 37/45/3 35/28/3 44/27/3
f 44/27/3 45/50/3 37/45/3
f 49/55/3 38/46/3 37/45/3
f 37/45/3 48/54/3 49/55/3
f 48/54/3 37/45/3 45/50/3
f 45/50/3 52/59/3 48/54/3
f 55/62/6 29/6/6 25/40/6
f 25/40/6 54/61/6 55/62/6
f 57/64/1 32/42/1 3/3/1
f 3/3/1 56/63/1 57/64/1
f 56/63/1 3/3/1 1/1/1
f 1/1/1 59/67/1 56/63/1
f 60/68/6 28/5/6 29/6/6
f 29/6/6 55/62/6 60/68/6
f 65/63/6 26/3/6 23/1/6
f 23/1/6 64/67/6 65/63/6
f 70/64/6 27/42/6 26/3/6
f 26/3/6 65/63/6 70/64/6
f 69/68/1 5/5/1 6/6/1
f 6/6/1 71/62/1 69/68/1
f 71/62/1 6/6/1 31/40/1
f 31/40/1 73/61/1 71/62/1
f 75/80/1 30/39/1 32/42/1
f 32/42/1 74/79/1 75/80/1
f 74/79/1 32/42/1 57/64/1
f 57/64/1 76/81/1 74/79/1
f 78/83/6 54/61/6 25/40/6
f 25/40/6 77/82/6 78/83/6
f 79/82/1 31/40/1 30/39/1
f 30/39/1 75/80/1 79/82/1
f 77/82/6 25/40/6 24/39/6
f 24/39/6 80/80/6 77/82/6
f 82/85/3 36/38/3 38/46/3
f 38/46/3 81/84/3 82/85/3
f 83/83/1 73/61/1 31/40/1
f 31/40/1 79/82/1 83/83/1
f 81/84/3 38/46/3 49/55/3
f 49/55/3 84/86/3 81/84/3
f 86/79/6 27/42/6 70/64/6
f 70/64/6 85/81/6 86/79/6
f 80/80/6 24/39/6 27/42/6
f 27/42/6 86/79/6 80/80/6
f 88/88/6 55/62/6 54/61/6
f 54/61/6 87/87/6 88/88/6
f 87/87/6 54/61/6 78/83/6
f 78/83/6 89/89/6 87/87/6
f 90/94/6 60/68/6 55/62/6
f 55/62/6 88/88/6 90/94/6
f 95/96/1 57/64/1 56/63/1
f 56/63/1 94/95/1 95/96/1
f 94/95/1 56/63/1 59/67/1
f 59/67/1 96/98/1 94/95/1
f 97/99/1 76/81/1 57/64/1
f 57/64/1 95/96/1 97/99/1
f 100/17/6 88/88/6 87/87/6
f 87/87/6 99/36/6 100/17/6
f 99/36/6 87/87/6 89/89/6
f 89/89/6 101/101/6 99/36/6
f 102/18/6 90/94/6 88/88/6
f 88/88/6 100/17/6 102/18/6
f 107/35/1 95/96/1 94/95/1
f 94/95/1 106/12/1 107/35/1
f 106/12/1 94/95/1 96/98/1
f 96/98/1 108/11/1 106/12/1
f 109/107/1 97/99/1 95/96/1
f 95/96/1 107/35/1 109/107/1
f 112/19/6 100/17/6 99/36/6
f 99/36/6 111/37/6 112/19/6
f 111/37/6 99/36/6 101/101/6
f 101/101/6 113/109/6 111/37/6
f 114/20/6 102/18/6 100/17/6
f 100/17/6 112/19/6 114/20/6
f 119/34/1 107/35/1 106/12/1
f 106/12/1 118/14/1 119/34/1
f 118/14/1 106/12/1 108/11/1
f 108/11/1 120/13/1 118/14/1
f 121/115/1 109/107/1 107/35/1
f 107/35/1 119/34/1 121/115/1
f 124/32/6 112/19/6 111/37/6
f 111/37/6 123/41/6 124/32/6
f 123/41/6 111/37/6 113/109/6
f 113/109/6 125/117/6 123/41/6
f 126/33/6 114/20/6 112/19/6
f 112/19/6 124/32/6 126/33/6
f 131/38/1 119/34/1 118/14/1
f 118/14/1 130/28/1 131/38/1
f 130/28/1 118/14/1 120/13/1
f 120/13/1 132/27/1 130/28/1
f 133/85/1 121/115/1 119/34/1
f 119/34/1 131/38/1 133/85/1
f 136/125/6 124/32/6 123/41/6
f 123/41/6 135/124/6 136/125/6
f 135/124/6 123/41/6 125/117/6
f 125/117/6 137/126/6 135/124/6
f 138/131/6 126/33/6 124/32/6
f 124/32/6 136/125/6 138/131/6
f 143/46/1 131/38/1 130/28/1
f 130/28/1 142/45/1 143/46/1
f 142/45/1 130/28/1 132/27/1
f 132/27/1 144/50/1 142/45/1
f 145/84/1 133/85/1 131/38/1
f 131/38/1 143/46/1 145/84/1
f 148/135/6 136/125/6 135/124/6
f 135/124/6 147/134/6 148/135/6
f 149/138/6 138/131/6 136/125/6
f 136/125/6 148/135/6 149/138/6
f 152/55/1 143/46/1 142/45/1
f 142/45/1 151/54/1 152/55/1
f 151/54/1 142/45/1 144/50/1
f 144/50/1 153/59/1 151/54/1
f 155/95/6 65/63/6 64/67/6
f 64/67/6 154/98/6 155/95/6
f 159/94/1 157/68/1 156/62/1
f 156/62/1 158/88/1 159/94/1
f 163/87/1 161/61/1 160/83/1
f 160/83/1 162/89/1 163/87/1
f 158/88/1 156/62/1 161/61/1
f 161/61/1 163/87/1 158/88/1
f 164/96/6 70/64/6 65/63/6
f 65/63/6 155/95/6 164/96/6
f 169/99/6 85/81/6 70/64/6
f 70/64/6 164/96/6 169/99/6
f 172/18/1 159/94/1 158/88/1
f 158/88/1 171/17/1 172/18/1
f 174/36/1 163/87/1 162/89/1
f 162/89/1 173/101/1 174/36/1
f 171/17/1 158/88/1 163/87/1
f 163/87/1 174/36/1 171/17/1
f 176/35/6 164/96/6 155/95/6
f 155/95/6 175/12/6 176/35/6
f 182/107/6 169/99/6 164/96/6
f 164/96/6 176/35/6 182/107/6
f 186/20/1 177/18/1 184/17/1
f 184/17/1 185/19/1 186/20/1
f 190/37/1 188/36/1 187/101/1
f 187/101/1 189/109/1 190/37/1
f 185/19/1 184/17/1 188/36/1
f 188/36/1 190/37/1 185/19/1
f 195/115/6 182/107/6 176/35/6
f 176/35/6 194/34/6 195/115/6
f 198/33/1 186/20/1 185/19/1
f 185/19/1 197/32/1 198/33/1
f 200/41/1 190/37/1 189/109/1
f 189/109/1 199/117/1 200/41/1
f 197/32/1 185/19/1 190/37/1
f 190/37/1 200/41/1 197/32/1
f 205/85/6 195/115/6 194/34/6
f 194/34/6 204/38/6 205/85/6
f 208/131/1 198/33/1 197/32/1
f 197/32/1 207/125/1 208/131/1
f 210/124/1 200/41/1 199/117/1
f 199/117/1 209/126/1 210/124/1
f 207/125/1 197/32/1 200/41/1
f 200/41/1 210/124/1 207/125/1
f 213/46/6 204/38/6 211/28/6
f 211/28/6 212/45/6 213/46/6
f 219/84/6 205/85/6 204/38/6
f 204/38/6 213/46/6 219/84/6
f 35/54/6 212/45/6 218/50/6
f 218/50/6 44/59/6 35/54/6
f 52/138/1 208/131/1 207/125/1
f 207/125/1 48/135/1 52/138/1
f 49/134/1 210/124/1 209/126/1
f 209/126/1 84/169/1 49/134/1
f 48/135/1 207/125/1 210/124/1
f 210/124/1 49/134/1 48/135/1
f 36/55/6 213/46/6 212/45/6
f 212/45/6 35/54/6 36/55/6
f 82/86/6 219/84/6 213/46/6
f 213/46/6 36/55/6 82/86/6
f 225/177/4 71/135/4 73/134/4
f 73/134/4 224/176/4 225/177/4
f 227/179/3 188/55/3 184/54/3
f 184/54/3 226/178/3 227/179/3
f 226/178/3 184/54/3 177/59/3
f 177/59/3 229/182/3 226/178/3
f 230/183/4 69/138/4 71/135/4
f 71/135/4 225/177/4 230/183/4
f 231/184/3 187/86/3 188/55/3
f 188/55/3 227/179/3 231/184/3
f 224/176/4 73/134/4 83/169/4
f 83/169/4 234/188/4 224/176/4
f 237/191/4 225/177/4 224/176/4
f 224/176/4 236/190/4 237/191/4
f 239/193/3 227/179/3 226/178/3
f 226/178/3 238/192/3 239/193/3
f 238/192/3 226/178/3 229/182/3
f 229/182/3 241/196/3 238/192/3
f 242/197/4 230/183/4 225/177/4
f 225/177/4 237/191/4 242/197/4
f 243/198/3 231/184/3 227/179/3
f 227/179/3 239/193/3 243/198/3
f 236/190/4 224/176/4 234/188/4
f 234/188/4 246/202/4 236/190/4
f 249/205/4 237/191/4 236/190/4
f 236/190/4 248/204/4 249/205/4
f 251/207/3 239/193/3 238/192/3
f 238/192/3 250/206/3 251/207/3
f 250/206/3 238/192/3 241/196/3
f 241/196/3 253/210/3 250/206/3
f 254/211/4 242/197/4 237/191/4
f 237/191/4 249/205/4 254/211/4
f 255/212/3 243/198/3 239/193/3
f 239/193/3 251/207/3 255/212/3
f 248/204/4 236/190/4 246/202/4
f 246/202/4 258/216/4 248/204/4
f 261/219/4 249/205/4 248/204/4
f 248/204/4 260/218/4 261/219/4
f 263/221/3 251/207/3 250/206/3
f 250/206/3 262/220/3 263/221/3
f 262/220/3 250/206/3 253/210/3
f 253/210/3 265/224/3 262/220/3
f 266/225/4 254/211/4 249/205/4
f 249/205/4 261/219/4 266/225/4
f 267/226/3 255/212/3 251/207/3
f 251/207/3 263/221/3 267/226/3
f 260/218/4 248/204/4 258/216/4
f 258/216/4 270/230/4 260/218/4
f 273/233/4 261/219/4 260/218/4
f 260/218/4 272/232/4 273/233/4
f 275/235/3 263/221/3 262/220/3
f 262/220/3 274/234/3 275/235/3
f 274/234/3 262/220/3 265/224/3
f 265/224/3 277/238/3 274/234/3
f 278/239/4 266/225/4 261/219/4
f 261/219/4 273/233/4 278/239/4
f 279/240/3 267/226/3 263/221/3
f 263/221/3 275/235/3 279/240/3
f 272/232/4 260/218/4 270/230/4
f 270/230/4 282/244/4 272/232/4
f 285/247/4 273/233/4 272/232/4
f 272/232/4 284/246/4 285/247/4
f 287/249/3 275/235/3 274/234/3
f 274/234/3 286/248/3 287/249/3
f 286/248/3 274/234/3 277/238/3
f 277/238/3 289/252/3 286/248/3
f 290/253/4 278/239/4 273/233/4
f 273/233/4 285/247/4 290/253/4
f 291/254/3 279/240/3 275/235/3
f 275/235/3 287/249/3 291/254/3
f 284/246/4 272/232/4 282/244/4
f 282/244/4 294/258/4 284/246/4
f 297/261/4 285/247/4 284/246/4
f 284/246/4 296/260/4 297/261/4
f 299/263/3 287/249/3 286/248/3
f 286/248/3 298/262/3 299/263/3
f 298/262/3 286/248/3 289/252/3
f 289/252/3 301/266/3 298/262/3
f 302/267/4 290/253/4 285/247/4
f 285/247/4 297/261/4 302/267/4
f 303/268/3 291/254/3 287/249/3
f 287/249/3 299/263/3 303/268/3
f 296/260/4 284/246/4 294/258/4
f 294/258/4 306/272/4 296/260/4
f 309/275/4 297/261/4 296/260/4
f 296/260/4 308/274/4 309/275/4
f 311/277/3 299/263/3 298/262/3
f 298/262/3 310/276/3 311/277/3
f 310/276/3 298/262/3 301/266/3
f 301/266/3 313/280/3 310/276/3
f 314/281/4 302/267/4 297/261/4
f 297/261/4 309/275/4 314/281/4
f 315/282/3 303/268/3 299/263/3
f 299/263/3 311/277/3 315/282/3
f 308/274/4 296/260/4 306/272/4
f 306/272/4 318/286/4 308/274/4
f 321/289/4 309/275/4 308/274/4
f 308/274/4 320/288/4 321/289/4
f 323/291/3 311/277/3 310/276/3
f 310/276/3 322/290/3 323/291/3
f 322/290/3 310/276/3 313/280/3
f 313/280/3 325/294/3 322/290/3
f 326/295/4 314/281/4 309/275/4
f 309/275/4 321/289/4 326/295/4
f 327/296/3 315/282/3 311/277/3
f 311/277/3 323/291/3 327/296/3
f 320/288/4 308/274/4 318/286/4
f 318/286/4 330/300/4 320/288/4
f 156/303/4 321/289/4 320/288/4
f 320/288/4 161/302/4 156/303/4
f 174/305/3 323/291/3 322/290/3
f 322/290/3 171/304/3 174/305/3
f 171/304/3 322/290/3 325/294/3
f 325/294/3 172/308/3 171/304/3
f 157/309/4 326/295/4 321/289/4
f 321/289/4 156/303/4 157/309/4
f 173/310/3 327/296/3 323/291/3
f 323/291/3 174/305/3 173/310/3
f 161/302/4 320/288/4 330/300/4
f 330/300/4 160/314/4 161/302/4
f 355/351/3 353/349/3 352/2/3
f 352/2/3 354/350/3 355/351/3
f 354/350/3 352/2/3 356/352/3
f 356/352/3 357/353/3 354/350/3
f 361/356/4 359/354/4 358/351/4
f 358/351/4 360/355/4 361/356/4
f 364/359/3 356/352/3 362/357/3
f 362/357/3 363/358/3 364/359/3
f 367/362/3 357/353/3 356/352/3
f 356/352/3 364/359/3 367/362/3
f 370/356/3 353/349/3 355/351/3
f 355/351/3 369/355/3 370/356/3
f 374/363/3 373/365/3 353/349/3
f 353/349/3 370/356/3 374/363/3
f 376/364/3 375/366/3 373/365/3
f 373/365/3 374/363/3 376/364/3
f 380/362/4 378/353/4 377/367/4
f 377/367/4 379/359/4 380/362/4
f 395/376/4 393/364/4 392/363/4
f 392/363/4 394/375/4 395/376/4
f 397/378/3 364/359/3 363/358/3
f 363/358/3 396/377/3 397/378/3
f 398/379/3 367/362/3 364/359/3
f 364/359/3 397/378/3 398/379/3
f 394/375/4 392/363/4 399/356/4
f 399/356/4 400/380/4 394/375/4
f 396/377/3 363/358/3 403/361/3
f 403/361/3 404/381/3 396/377/3
f 400/380/4 399/356/4 408/355/4
f 408/355/4 409/384/4 400/380/4
f 416/376/6 414/364/6 413/363/6
f 413/363/6 415/375/6 416/376/6
f 422/380/6 420/356/6 419/355/6
f 419/355/6 421/384/6 422/380/6
f 430/377/1 428/358/1 427/361/1
f 427/361/1 429/381/1 430/377/1
f 434/379/1 432/362/1 431/359/1
f 431/359/1 433/378/1 434/379/1
f 437/375/3 374/363/3 370/356/3
f 370/356/3 436/380/3 437/375/3
f 441/376/3 376/364/3 374/363/3
f 374/363/3 437/375/3 441/376/3
f 448/378/4 446/359/4 445/358/4
f 445/358/4 447/377/4 448/378/4
f 447/377/4 445/358/4 453/361/4
f 453/361/4 454/381/4 447/377/4
f 456/379/4 455/362/4 446/359/4
f 446/359/4 448/378/4 456/379/4
f 469/376/1 467/364/1 466/363/1
f 466/363/1 468/375/1 469/376/1
f 473/380/1 471/356/1 470/355/1
f 470/355/1 472/384/1 473/380/1
f 483/377/6 481/358/6 480/361/6
f 480/361/6 482/381/6 483/377/6
f 487/379/6 485/362/6 484/359/6
f 484/359/6 486/378/6 487/379/6
f 489/395/1 470/355/1 12/351/1
f 12/351/1 15/394/1 489/395/1
f 491/396/4 409/384/4 408/355/4
f 408/355/4 490/395/4 491/396/4
f 8/399/1 17/353/1 432/362/1
f 432/362/1 496/398/1 8/399/1
f 490/395/4 408/355/4 493/351/4
f 493/351/4 495/394/4 490/395/4
f 494/397/4 492/350/4 497/353/4
f 497/353/4 498/399/4 494/397/4
f 501/399/3 357/353/3 367/362/3
f 367/362/3 500/398/3 501/399/3
f 502/396/1 472/384/1 470/355/1
f 470/355/1 489/395/1 502/396/1
f 507/397/3 505/350/3 504/353/3
f 504/353/3 506/399/3 507/397/3
f 511/395/3 369/355/3 355/351/3
f 355/351/3 510/394/3 511/395/3
f 512/396/3 444/384/3 369/355/3
f 369/355/3 511/395/3 512/396/3
f 515/399/6 513/353/6 485/362/6
f 485/362/6 514/398/6 515/399/6
f 514/398/6 485/362/6 487/379/6
f 487/379/6 516/400/6 514/398/6
f 518/397/6 517/350/6 513/353/6
f 513/353/6 515/399/6 518/397/6
f 520/394/6 519/351/6 517/350/6
f 517/350/6 518/397/6 520/394/6
f 522/396/6 421/384/6 419/355/6
f 419/355/6 521/395/6 522/396/6
f 498/399/4 497/353/4 455/362/4
f 455/362/4 523/398/4 498/399/4
f 523/398/4 455/362/4 456/379/4
f 456/379/4 524/400/4 523/398/4
f 526/340/7 437/402/7 436/401/7
f 436/401/7 525/374/7 526/340/7
f 528/350/7 444/404/7 512/403/7
f 512/403/7 527/397/7 528/350/7
f 525/374/7 436/401/7 444/404/7
f 444/404/7 528/350/7 525/374/7
f 529/342/7 441/405/7 437/402/7
f 437/402/7 526/340/7 529/342/7
f 536/340/8 447/411/8 454/414/8
f 454/414/8 538/342/8 536/340/8
f 539/350/8 456/415/8 448/412/8
f 448/412/8 537/374/8 539/350/8
f 540/397/8 524/418/8 456/415/8
f 456/415/8 539/350/8 540/397/8
f 542/350/9 434/415/9 433/412/9
f 433/412/9 541/374/9 542/350/9
f 541/374/9 433/412/9 430/411/9
f 430/411/9 543/340/9 541/374/9
f 543/340/9 430/411/9 429/414/9
f 429/414/9 544/342/9 543/340/9
f 545/397/9 499/418/9 434/415/9
f 434/415/9 542/350/9 545/397/9
f 537/374/8 422/401/8 421/404/8
f 421/404/8 539/350/8 537/374/8
f 539/350/8 421/404/8 522/403/8
f 522/403/8 540/397/8 539/350/8
f 536/340/8 415/402/8 422/401/8
f 422/401/8 537/374/8 536/340/8
f 538/342/8 416/405/8 415/402/8
f 415/402/8 536/340/8 538/342/8
f 551/350/10 398/415/10 397/412/10
f 397/412/10 550/374/10 551/350/10
f 550/374/10 397/412/10 396/411/10
f 396/411/10 552/340/10 550/374/10
f 552/340/10 396/411/10 404/414/10
f 404/414/10 555/342/10 552/340/10
f 556/397/10 503/418/10 398/415/10
f 398/415/10 551/350/10 556/397/10
f 541/374/9 400/401/9 409/404/9
f 409/404/9 542/350/9 541/374/9
f 542/350/9 409/404/9 491/403/9
f 491/403/9 545/397/9 542/350/9
f 543/340/9 394/402/9 400/401/9
f 400/401/9 541/374/9 543/340/9
f 544/342/9 395/405/9 394/402/9
f 394/402/9 543/340/9 544/342/9
f 525/374/7 486/412/7 483/411/7
f 483/411/7 526/340/7 525/374/7
f 526/340/7 483/411/7 482/414/7
f 482/414/7 529/342/7 526/340/7
f 528/350/7 487/415/7 486/412/7
f 486/412/7 525/374/7 528/350/7
f 527/397/7 516/418/7 487/415/7
f 487/415/7 528/350/7 527/397/7
f 550/374/10 473/401/10 472/404/10
f 472/404/10 551/350/10 550/374/10
f 551/350/10 472/404/10 502/403/10
f 502/403/10 556/397/10 551/350/10
f 555/342/10 469/405/10 468/402/10
f 468/402/10 552/340/10 555/342/10
f 564/435/1 408/413/1 399/410/1
f 399/410/1 563/434/1 564/435/1
f 569/442/6 446/416/6 455/419/6
f 455/419/6 568/441/6 569/442/6
f 571/93/1 564/435/1 563/434/1
f 563/434/1 570/72/1 571/93/1
f 570/72/1 563/434/1 574/10/1
f 574/10/1 575/26/1 570/72/1
f 579/31/6 577/30/6 569/442/6
f 569/442/6 578/71/6 579/31/6
f 578/71/6 569/442/6 568/441/6
f 568/441/6 580/90/6 578/71/6
f 582/449/2 356/429/2 352/428/2
f 352/428/2 581/448/2 582/449/2
f 585/10/6 373/8/6 375/7/6
f 375/7/6 584/9/6 585/10/6
f 586/13/6 353/11/6 373/8/6
f 373/8/6 585/10/6 586/13/6
f 581/448/2 352/428/2 353/425/2
f 353/425/2 586/450/2 581/448/2
f 180/452/3 187/86/3 231/184/3
f 231/184/3 232/451/3 180/452/3
f 220/453/6 219/84/6 82/86/6
f 82/86/6 223/452/6 220/453/6
f 216/455/1 209/126/1 199/117/1
f 199/117/1 203/454/1 216/455/1
f 221/453/3 81/84/3 84/86/3
f 84/86/3 222/452/3 221/453/3
f 206/456/6 205/85/6 219/84/6
f 219/84/6 220/453/6 206/456/6
f 203/454/1 199/117/1 189/109/1
f 189/109/1 193/457/1 203/454/1
f 196/458/6 195/115/6 205/85/6
f 205/85/6 206/456/6 196/458/6
f 222/459/1 84/169/1 209/126/1
f 209/126/1 216/455/1 222/459/1
f 223/456/3 82/85/3 81/84/3
f 81/84/3 221/453/3 223/456/3
f 39/461/6 80/80/6 86/79/6
f 86/79/6 46/460/6 39/461/6
f 183/462/6 182/107/6 195/115/6
f 195/115/6 196/458/6 183/462/6
f 193/457/1 189/109/1 187/101/1
f 187/101/1 180/463/1 193/457/1
f 170/464/6 169/99/6 182/107/6
f 182/107/6 183/462/6 170/464/6
f 67/465/6 85/81/6 169/99/6
f 169/99/6 170/464/6 67/465/6
f 46/460/6 86/79/6 85/81/6
f 85/81/6 67/465/6 46/460/6
f 72/467/1 83/83/1 79/82/1
f 79/82/1 53/466/1 72/467/1
f 40/466/6 77/82/6 80/80/6
f 80/80/6 39/461/6 40/466/6
f 53/466/1 79/82/1 75/80/1
f 75/80/1 50/461/1 53/466/1
f 63/467/6 78/83/6 77/82/6
f 77/82/6 40/466/6 63/467/6
f 51/460/1 74/79/1 76/81/1
f 76/81/1 61/465/1 51/460/1
f 93/468/6 89/89/6 78/83/6
f 78/83/6 63/467/6 93/468/6
f 61/465/1 76/81/1 97/99/1
f 97/99/1 98/464/1 61/465/1
f 105/463/6 101/101/6 89/89/6
f 89/89/6 93/468/6 105/463/6
f 98/464/1 97/99/1 109/107/1
f 109/107/1 110/462/1 98/464/1
f 117/457/6 113/109/6 101/101/6
f 101/101/6 105/463/6 117/457/6
f 110/462/1 109/107/1 121/115/1
f 121/115/1 122/458/1 110/462/1
f 129/454/6 125/117/6 113/109/6
f 113/109/6 117/457/6 129/454/6
f 122/458/1 121/115/1 133/85/1
f 133/85/1 134/456/1 122/458/1
f 141/455/6 137/126/6 125/117/6
f 125/117/6 129/454/6 141/455/6
f 50/461/1 75/80/1 74/79/1
f 74/79/1 51/460/1 50/461/1
f 235/469/4 234/188/4 83/169/4
f 83/169/4 72/459/4 235/469/4
f 134/456/1 133/85/1 145/84/1
f 145/84/1 146/453/1 134/456/1
f 247/470/4 246/202/4 234/188/4
f 234/188/4 235/469/4 247/470/4
f 232/451/3 231/184/3 243/198/3
f 243/198/3 244/471/3 232/451/3
f 259/472/4 258/216/4 246/202/4
f 246/202/4 247/470/4 259/472/4
f 244/471/3 243/198/3 255/212/3
f 255/212/3 256/473/3 244/471/3
f 256/473/3 255/212/3 267/226/3
f 267/226/3 268/475/3 256/473/3
f 283/476/4 282/244/4 270/230/4
f 270/230/4 271/474/4 283/476/4
f 268/475/3 267/226/3 279/240/3
f 279/240/3 280/477/3 268/475/3
f 295/478/4 294/258/4 282/244/4
f 282/244/4 283/476/4 295/478/4
f 280/477/3 279/240/3 291/254/3
f 291/254/3 292/479/3 280/477/3
f 307/480/4 306/272/4 294/258/4
f 294/258/4 295/478/4 307/480/4
f 292/479/3 291/254/3 303/268/3
f 303/268/3 304/481/3 292/479/3
f 319/482/4 318/286/4 306/272/4
f 306/272/4 307/480/4 319/482/4
f 304/481/3 303/268/3 315/282/3
f 315/282/3 316/483/3 304/481/3
f 331/484/4 330/300/4 318/286/4
f 318/286/4 319/482/4 331/484/4
f 332/463/1 173/101/1 162/89/1
f 162/89/1 333/468/1 332/463/1
f 334/485/4 160/314/4 330/300/4
f 330/300/4 331/484/4 334/485/4
f 333/468/1 162/89/1 160/83/1
f 160/83/1 334/467/1 333/468/1
f 328/487/3 327/296/3 173/310/3
f 173/310/3 332/486/3 328/487/3
f 316/483/3 315/282/3 327/296/3
f 327/296/3 328/487/3 316/483/3
f 588/27/6 586/13/6 585/10/6
f 585/10/6 587/26/6 588/27/6
f 590/491/2 582/489/2 581/488/2
f 581/488/2 589/490/2 590/491/2
f 589/490/2 581/488/2 586/492/2
f 586/492/2 588/493/2 589/490/2
f 587/26/6 585/10/6 584/9/6
f 584/9/6 592/25/6 587/26/6
f 600/49/1 598/31/1 597/71/1
f 597/71/1 599/65/1 600/49/1
f 602/43/1 601/23/1 598/31/1
f 598/31/1 600/49/1 602/43/1
f 608/48/6 606/26/6 605/25/6
f 605/25/6 607/47/6 608/48/6
f 610/70/6 609/72/6 606/26/6
f 606/26/6 608/48/6 610/70/6
f 618/57/6 608/48/6 607/47/6
f 607/47/6 617/56/6 618/57/6
f 619/69/6 610/70/6 608/48/6
f 608/48/6 618/57/6 619/69/6
f 622/503/6 619/69/6 618/57/6
f 618/57/6 621/502/6 622/503/6
f 621/502/6 618/57/6 617/56/6
f 617/56/6 626/507/6 621/502/6
f 606/358/4 587/357/4 592/508/4
f 592/508/4 605/361/4 606/358/4
f 609/359/4 588/352/4 587/357/4
f 587/357/4 606/358/4 609/359/4
f 621/363/3 632/341/3 631/354/3
f 631/354/3 622/356/3 621/363/3
f 637/359/3 635/367/3 634/345/3
f 634/345/3 636/358/3 637/359/3
f 598/363/4 644/365/4 590/349/4
f 590/349/4 597/356/4 598/363/4
f 623/350/3 646/374/3 635/367/3
f 635/367/3 624/353/3 623/350/3
f 624/353/3 635/367/3 637/359/3
f 637/359/3 641/362/3 624/353/3
f 641/520/1 637/518/12 647/517/11
f 647/517/11 642/519/12 641/520/1
f 625/351/3 631/354/3 646/374/3
f 646/374/3 623/350/3 625/351/3
f 628/92/6 610/70/6 619/69/6
f 619/69/6 629/100/6 628/92/6
f 630/355/3 622/356/3 631/354/3
f 631/354/3 625/351/3 630/355/3
f 629/100/6 619/69/6 622/503/6
f 622/503/6 630/521/6 629/100/6
f 627/93/6 609/72/6 610/70/6
f 610/70/6 628/92/6 627/93/6
f 508/353/4 588/352/4 609/359/4
f 609/359/4 627/362/4 508/353/4
f 505/350/4 589/2/4 588/352/4
f 588/352/4 508/353/4 505/350/4
f 504/351/4 590/349/4 589/2/4
f 589/2/4 505/350/4 504/351/4
f 645/355/4 597/356/4 590/349/4
f 590/349/4 504/351/4 645/355/4
f 643/91/1 599/65/1 597/71/1
f 597/71/1 645/90/1 643/91/1
f 846/374/1 856/2/1 854/641/1
f 854/641/1 848/558/1 846/374/1
f 848/558/1 854/641/1 855/1/1
f 855/1/1 18/367/1 848/558/1
f 11/354/1 858/5/1 857/652/1
f 857/652/1 847/559/1 11/354/1
f 847/559/1 857/652/1 856/2/1
f 856/2/1 846/374/1 847/559/1
f 861/554/1 860/555/1 858/5/1
f 858/5/1 11/354/1 861/554/1
f 862/68/1 466/363/1 859/542/1
f 859/542/1 860/555/1 862/68/1
f 471/356/1 862/68/1 860/555/1
f 860/555/1 861/554/1 471/356/1
f 18/367/1 855/1/1 863/553/1
f 863/553/1 865/552/1 18/367/1
f 865/552/1 863/553/1 866/67/1
f 866/67/1 431/359/1 865/552/1
f 863/553/1 864/544/1 428/358/1
f 428/358/1 866/67/1 863/553/1
f 876/558/6 875/374/6 874/2/6
f 874/2/6 872/641/6 876/558/6
f 877/367/6 876/558/6 872/641/6
f 872/641/6 873/1/6 877/367/6
f 881/559/6 880/354/6 879/5/6
f 879/5/6 878/652/6 881/559/6
f 875/374/6 881/559/6 878/652/6
f 878/652/6 874/2/6 875/374/6
f 884/552/6 877/367/6 873/1/6
f 873/1/6 882/553/6 884/552/6
f 484/359/6 884/552/6 882/553/6
f 882/553/6 885/67/6 484/359/6
f 885/67/6 882/553/6 883/544/6
f 883/544/6 481/358/6 885/67/6
f 880/354/6 888/554/6 887/555/6
f 887/555/6 879/5/6 880/354/6
f 887/555/6 889/68/6 413/363/6
f 413/363/6 886/542/6 887/555/6
f 888/554/6 420/356/6 889/68/6
f 889/68/6 887/555/6 888/554/6
f 211/28/6 895/672/6 897/673/6
f 897/673/6 896/72/6 211/28/6
f 896/72/6 897/673/6 898/674/6
f 898/674/6 217/27/6 896/72/6
f 899/677/6 890/410/6 181/11/6
f 181/11/6 893/676/6 899/677/6
f 892/669/6 175/12/6 890/410/6
f 890/410/6 899/677/6 892/669/6
f 904/536/1 903/679/1 900/668/1
f 900/668/1 362/417/1 904/536/1
f 903/679/1 902/680/1 558/420/1
f 558/420/1 900/668/1 903/679/1
f 907/682/1 595/23/1 906/681/1
f 906/681/1 908/683/1 907/682/1
f 644/31/1 907/682/1 908/683/1
f 908/683/1 909/684/1 644/31/1
f 643/688/14 642/686/13 647/687/14
f 647/687/14 599/689/15 643/688/14
f 910/692/17 600/690/16 599/691/17
f 599/691/17 647/693/18 910/692/17
f 647/696/20 637/694/19 636/695/20
f 636/695/20 910/697/21 647/696/20
f 602/698/22 600/690/16 910/692/22
f 910/692/22 639/699/23 602/698/22
f 639/702/25 910/700/24 636/701/25
f 636/701/25 640/703/1 639/702/25
f 911/704/4 912/528/4 892/340/4
f 892/340/4 893/342/4 911/704/4
f 914/342/6 916/340/6 915/341/6
f 915/341/6 913/343/6 914/342/6
f 898/342/3 895/340/3 918/529/3
f 918/529/3 917/705/3 898/342/3
f 921/543/3 917/705/3 918/529/3
f 918/529/3 920/542/3 921/543/3
f 925/709/26 923/707/26 922/706/26
f 922/706/26 924/708/26 925/709/26
f 919/544/4 912/528/4 911/704/4
f 911/704/4 926/545/4 919/544/4
f 929/711/3 921/543/3 920/542/3
f 920/542/3 928/710/3 929/711/3
f 931/713/5 925/544/5 924/545/5
f 924/545/5 930/712/5 931/713/5
f 927/713/4 919/544/4 926/545/4
f 926/545/4 932/712/4 927/713/4
f 935/715/3 929/711/3 928/710/3
f 928/710/3 934/714/3 935/715/3
f 939/719/27 937/717/27 936/716/27
f 936/716/27 938/718/27 939/719/27
f 933/721/4 927/713/4 932/712/4
f 932/712/4 940/720/4 933/721/4
f 943/680/3 935/715/3 934/714/3
f 934/714/3 942/536/3 943/680/3
f 945/535/5 939/721/5 938/720/5
f 938/720/5 944/722/5 945/535/5
f 941/535/4 933/721/4 940/720/4
f 940/720/4 946/722/4 941/535/4
f 948/724/3 935/715/3 943/680/3
f 943/680/3 947/723/3 948/724/3
f 950/726/4 946/722/4 940/720/4
f 940/720/4 949/725/4 950/726/4
f 952/347/6 914/342/6 913/343/6
f 913/343/6 951/346/6 952/347/6
f 923/591/1 911/344/1 917/342/1
f 917/342/1 922/660/1 923/591/1
f 930/727/3 929/711/3 935/715/3
f 935/715/3 948/724/3 930/727/3
f 949/725/4 940/720/4 932/712/4
f 932/712/4 931/728/4 949/725/4
f 924/729/3 921/543/3 929/711/3
f 929/711/3 930/727/3 924/729/3
f 931/728/4 932/712/4 926/545/4
f 926/545/4 925/730/4 931/728/4
f 922/665/3 917/705/3 921/543/3
f 921/543/3 924/729/3 922/665/3
f 925/730/4 926/545/4 911/704/4
f 911/704/4 923/662/4 925/730/4
f 937/621/1 931/732/1 930/731/1
f 930/731/1 936/617/1 937/621/1
f 936/734/3 930/727/3 948/724/3
f 948/724/3 938/733/3 936/734/3
f 939/736/4 949/725/4 931/728/4
f 931/728/4 937/735/4 939/736/4
f 938/733/3 948/724/3 947/723/3
f 947/723/3 944/737/3 938/733/3
f 945/738/4 950/726/4 949/725/4
f 949/725/4 939/736/4 945/738/4
f 915/740/4 941/535/4 946/722/4
f 946/722/4 913/739/4 915/740/4
f 913/739/4 946/722/4 950/726/4
f 950/726/4 951/741/4 913/739/4
f 952/743/3 947/723/3 943/680/3
f 943/680/3 914/742/3 952/743/3
f 951/741/4 950/726/4 945/738/4
f 945/738/4 953/744/4 951/741/4
f 914/742/3 943/680/3 942/536/3
f 942/536/3 916/745/3 914/742/3
f 954/746/3 944/737/3 947/723/3
f 947/723/3 952/743/3 954/746/3
f 909/748/2 952/742/2 951/745/2
f 951/745/2 904/747/2 909/748/2
f 904/750/4 951/741/4 953/744/4
f 953/744/4 902/749/4 904/750/4
f 906/752/3 954/746/3 952/743/3
f 952/743/3 909/751/3 906/752/3
f 959/92/1 571/93/1 570/72/1
f 570/72/1 958/70/1 959/92/1
f 957/49/6 579/31/6 578/71/6
f 578/71/6 960/65/6 957/49/6
f 958/70/1 570/72/1 575/26/1
f 575/26/1 964/48/1 958/70/1
f 960/65/6 578/71/6 580/90/6
f 580/90/6 966/91/6 960/65/6
f 971/100/1 959/92/1 958/70/1
f 958/70/1 970/69/1 971/100/1
f 969/58/6 957/49/6 960/65/6
f 960/65/6 972/66/6 969/58/6
f 970/69/1 958/70/1 964/48/1
f 964/48/1 976/57/1 970/69/1
f 972/66/6 960/65/6 966/91/6
f 966/91/6 978/97/6 972/66/6
f 983/521/1 971/100/1 970/69/1
f 970/69/1 982/503/1 983/521/1
f 981/774/6 969/58/6 972/66/6
f 972/66/6 984/773/6 981/774/6
f 982/503/1 970/69/1 976/57/1
f 976/57/1 988/502/1 982/503/1
f 984/773/6 972/66/6 978/97/6
f 978/97/6 990/777/6 984/773/6
f 360/781/1 983/521/1 982/503/1
f 982/503/1 361/780/1 360/781/1
f 991/783/6 981/774/6 984/773/6
f 984/773/6 379/782/6 991/783/6
f 361/780/1 982/503/1 988/502/1
f 988/502/1 995/787/1 361/780/1
f 379/782/6 984/773/6 990/777/6
f 990/777/6 380/788/6 379/782/6
f 632/341/3 998/576/3 997/789/3
f 997/789/3 996/529/3 632/341/3
f 999/529/3 1002/789/3 1001/790/3
f 1001/790/3 1000/340/3 999/529/3
f 1002/789/3 1004/705/3 1003/342/3
f 1003/342/3 1001/790/3 1002/789/3
f 998/576/3 633/343/3 1005/705/3
f 1005/705/3 997/789/3 998/576/3
f 1001/790/3 1003/342/3 1007/704/3
f 1007/704/3 1006/791/3 1001/790/3
f 1000/340/3 1001/790/3 1006/791/3
f 1006/791/3 1008/528/3 1000/340/3
f 1009/528/3 1011/791/3 1010/601/3
f 1010/601/3 634/345/3 1009/528/3
f 1011/791/3 1012/704/3 638/344/3
f 638/344/3 1010/601/3 1011/791/3
f 1002/798/6 997/796/6 1005/507/6
f 1005/507/6 1004/797/6 1002/798/6
f 1007/802/1 1012/800/1 1011/799/1
f 1011/799/1 1006/801/1 1007/802/1
f 999/803/6 996/502/6 997/796/6
f 997/796/6 1002/798/6 999/803/6
f 1006/801/1 1011/799/1 1009/774/1
f 1009/774/1 1008/804/1 1006/801/1
f 1000/794/2 1013/504/2 996/793/2
f 996/793/2 999/805/2 1000/794/2
f 1008/795/2 1009/792/2 1013/504/2
f 1013/504/2 1000/794/2 1008/795/2
f 1018/808/2 501/807/2 562/806/2
f 562/806/2 1017/488/2 1018/808/2
f 1015/488/5 354/806/5 357/811/5
f 357/811/5 1020/812/5 1015/488/5
f 1020/441/1 357/419/1 501/813/1
f 501/813/1 1018/814/1 1020/441/1
f 506/497/2 1018/808/2 1017/488/2
f 1017/488/2 507/490/2 506/497/2
f 505/490/5 1015/488/5 1020/812/5
f 1020/812/5 504/498/5 505/490/5
f 504/90/1 1020/441/1 1018/814/1
f 1018/814/1 506/102/1 504/90/1
f 1023/1/4 1022/641/4 1021/528/4
f 1021/528/4 992/345/4 1023/1/4
f 1027/641/4 1026/2/4 1025/340/4
f 1025/340/4 1024/528/4 1027/641/4
f 1029/558/4 1028/374/4 1026/2/4
f 1026/2/4 1027/641/4 1029/558/4
f 377/367/4 1030/558/4 1022/641/4
f 1022/641/4 1023/1/4 377/367/4
f 1026/2/4 1032/652/4 1031/529/4
f 1031/529/4 1025/340/4 1026/2/4
f 1035/652/4 1034/5/4 994/341/4
f 994/341/4 1033/529/4 1035/652/4
f 1036/559/4 359/354/4 1034/5/4
f 1034/5/4 1035/652/4 1036/559/4
f 1028/374/4 1037/559/4 1032/652/4
f 1032/652/4 1026/2/4 1028/374/4
f 1032/819/1 1035/817/1 1033/787/1
f 1033/787/1 1031/818/1 1032/819/1
f 1027/822/6 1022/820/6 1030/782/6
f 1030/782/6 1029/821/6 1027/822/6
f 1025/824/5 1039/784/5 1021/815/5
f 1021/815/5 1024/823/5 1025/824/5
f 1031/825/5 1033/816/5 1039/784/5
f 1039/784/5 1025/824/5 1031/825/5
f 1037/826/1 1036/780/1 1035/817/1
f 1035/817/1 1032/819/1 1037/826/1
f 1028/824/2 1038/784/2 1036/815/2
f 1036/815/2 1037/823/2 1028/824/2
f 1029/825/2 1030/816/2 1038/784/2
f 1038/784/2 1028/824/2 1029/825/2
f 1024/827/6 1021/783/6 1022/820/6
f 1022/820/6 1027/822/6 1024/827/6
f 1074/177/6 148/135/6 147/134/6
f 147/134/6 1073/176/6 1074/177/6
f 1076/179/1 152/55/1 151/54/1
f 151/54/1 1075/178/1 1076/179/1
f 1075/178/1 151/54/1 153/59/1
f 153/59/1 1078/182/1 1075/178/1
f 1079/183/6 149/138/6 148/135/6
f 148/135/6 1074/177/6 1079/183/6
f 1083/191/6 1074/177/6 1073/176/6
f 1073/176/6 1082/190/6 1083/191/6
f 1085/193/1 1076/179/1 1075/178/1
f 1075/178/1 1084/192/1 1085/193/1
f 1087/126/4 140/455/4 146/459/4
f 146/459/4 145/169/4 1087/126/4
f 141/454/4 140/455/4 1087/126/4
f 1087/126/4 137/117/4 141/454/4
f 1087/126/4 145/169/4 143/134/4
f 143/134/4 1088/124/4 1087/126/4
f 1088/124/4 135/41/4 137/117/4
f 137/117/4 1087/126/4 1088/124/4
f 1083/32/4 1089/852/4 1092/853/4
f 1092/853/4 1091/71/4 1083/32/4
f 1091/71/4 1092/853/4 1094/854/4
f 1094/854/4 1093/33/4 1091/71/4
f 1098/853/4 1097/65/4 1096/131/4
f 1096/131/4 1095/854/4 1098/853/4
f 1100/852/4 1099/125/4 1097/65/4
f 1097/65/4 1098/853/4 1100/852/4
f 1099/125/4 1103/855/4 1102/856/4
f 1102/856/4 1097/65/4 1099/125/4
f 1097/65/4 1102/856/4 1104/857/4
f 1104/857/4 1096/131/4 1097/65/4
f 1108/856/4 1107/66/4 1106/138/4
f 1106/138/4 1105/857/4 1108/856/4
f 1101/855/4 1084/135/4 1107/66/4
f 1107/66/4 1108/856/4 1101/855/4
f 1102/866/1 1108/861/1 1105/196/1
f 1105/196/1 1104/865/1 1102/866/1
f 1098/868/6 1092/862/6 1089/191/6
f 1089/191/6 1100/867/6 1098/868/6
f 1096/870/5 1109/860/5 1094/863/5
f 1094/863/5 1095/869/5 1096/870/5
f 1104/871/5 1105/859/5 1109/860/5
f 1109/860/5 1096/870/5 1104/871/5
f 1103/872/1 1101/192/1 1108/861/1
f 1108/861/1 1102/866/1 1103/872/1
f 1099/875/2 1090/850/2 1101/873/2
f 1101/873/2 1103/874/2 1099/875/2
f 1100/877/2 1089/876/2 1090/850/2
f 1090/850/2 1099/875/2 1100/877/2
f 1095/878/6 1094/197/6 1092/862/6
f 1092/862/6 1098/868/6 1095/878/6

usemtl IndustrialCeiling
f 524/396/2 522/419/2 457/384/2
f 499/413/2 491/400/2 435/379/2
f 503/430/2 502/408/2 465/392/2
f 740/663/1 838/590/1 745/591/1
f 740/663/1 737/662/1 838/590/1
f 838/590/1 737/662/1 839/659/1
f 839/659/1 737/662/1 747/661/1
f 747/661/1 730/660/1 839/659/1
f 725/666/1 839/659/1 730/660/1
f 725/666/1 722/665/1 839/659/1
f 839/659/1 722/665/1 840/573/1
f 840/573/1 722/665/1 734/664/1
f 734/664/1 731/564/1 840/573/1
f 841/590/6 753/591/6 754/663/6
f 754/663/6 755/662/6 841/590/6
f 841/590/6 755/662/6 842/659/6
f 842/659/6 755/662/6 760/661/6
f 761/660/6 842/659/6 760/661/6
f 799/663/3 840/590/3 731/591/3
f 799/663/3 800/662/3 840/590/3
f 840/590/3 800/662/3 843/659/3
f 843/659/3 800/662/3 803/661/3
f 803/661/3 787/660/3 843/659/3
f 844/659/4 817/660/4 824/666/4
f 824/666/4 826/665/4 844/659/4
f 844/659/4 826/665/4 838/573/4
f 838/573/4 826/665/4 830/664/4
f 745/564/4 838/573/4 830/664/4
f 845/590/4 773/591/4 807/663/4
f 807/663/4 810/662/4 845/590/4
f 845/590/4 810/662/4 844/659/4
f 844/659/4 810/662/4 815/661/4
f 817/660/4 844/659/4 815/661/4
f 842/659/6 761/660/6 766/666/6
f 766/666/6 767/665/6 842/659/6
f 842/659/6 767/665/6 845/573/6
f 845/573/6 767/665/6 772/664/6
f 773/564/6 845/573/6 772/664/6
f 788/666/3 843/659/3 787/660/3
f 788/666/3 789/665/3 843/659/3
f 843/659/3 789/665/3 841/573/3
f 841/573/3 789/665/3 794/664/3
f 794/664/3 753/564/3 841/573/3
f 839/659/1 1057/618/1 1058/616/1
f 1058/616/1 1059/624/1 838/590/1
f 839/659/1 1058/616/1 838/590/1
f 840/573/1 1067/612/1 1061/629/1
f 1061/629/1 1057/618/1 839/659/1
f 840/573/1 1061/629/1 839/659/1
f 842/659/6 1069/616/6 841/590/6
f 842/659/6 1046/618/6 1069/616/6
f 1069/616/6 1071/624/6 841/590/6
f 843/659/3 1065/618/3 1066/616/3
f 1066/616/3 1067/624/3 840/590/3
f 843/659/3 1066/616/3 840/590/3
f 838/573/4 1053/629/4 844/659/4
f 838/573/4 1059/612/4 1053/629/4
f 1053/629/4 1040/618/4 844/659/4
f 844/659/4 1041/616/4 845/590/4
f 844/659/4 1040/618/4 1041/616/4
f 1041/616/4 1044/624/4 845/590/4
f 845/573/6 1045/629/6 842/659/6
f 845/573/6 1044/612/6 1045/629/6
f 1045/629/6 1046/618/6 842/659/6
f 841/573/3 1071/612/3 1072/629/3
f 1072/629/3 1065/618/3 843/659/3
f 841/573/3 1072/629/3 843/659/3
f 10/10/2 8/8/2 7/7/2
f 7/7/2 9/9/2 10/10/2
f 9/9/2 7/7/2 15/15/2
f 15/15/2 16/16/2 9/9/2
f 25/26/2 10/10/2 9/9/2
f 9/9/2 24/25/2 25/26/2
f 24/25/2 9/9/2 16/16/2
f 16/16/2 27/29/2 24/25/2
f 344/341/2 346/343/2 345/342/2
f 345/342/2 343/340/2 344/341/2
f 348/345/2 343/340/2 345/342/2
f 345/342/2 347/344/2 348/345/2
f 350/347/2 345/342/2 346/343/2
f 346/343/2 349/346/2 350/347/2
f 351/348/2 347/344/2 345/342/2
f 345/342/2 350/347/2 351/348/2
f 366/361/2 347/344/2 351/348/2
f 351/348/2 365/360/2 366/361/2
f 368/358/2 348/345/2 347/344/2
f 347/344/2 366/361/2 368/358/2
f 372/364/2 346/343/2 344/341/2
f 344/341/2 371/363/2 372/364/2
f 381/368/2 349/346/2 346/343/2
f 346/343/2 372/364/2 381/368/2
f 383/370/2 365/360/2 351/348/2
f 351/348/2 382/369/2 383/370/2
f 385/372/2 350/347/2 349/346/2
f 349/346/2 384/371/2 385/372/2
f 384/371/2 349/346/2 381/368/2
f 381/368/2 386/373/2 384/371/2
f 382/369/2 351/348/2 350/347/2
f 350/347/2 385/372/2 382/369/2
f 388/374/2 343/340/2 348/345/2
f 348/345/2 387/367/2 388/374/2
f 387/367/2 348/345/2 368/358/2
f 368/358/2 389/359/2 387/367/2
f 390/354/2 344/341/2 343/340/2
f 343/340/2 388/374/2 390/354/2
f 391/356/2 371/363/2 344/341/2
f 344/341/2 390/354/2 391/356/2
f 402/377/2 368/358/2 366/361/2
f 366/361/2 401/381/2 402/377/2
f 401/381/2 366/361/2 365/360/2
f 365/360/2 405/382/2 401/381/2
f 405/382/2 365/360/2 383/370/2
f 383/370/2 406/383/2 405/382/2
f 407/378/2 389/359/2 368/358/2
f 368/358/2 402/377/2 407/378/2
f 411/351/2 390/354/2 388/374/2
f 388/374/2 410/350/2 411/351/2
f 412/355/2 391/356/2 390/354/2
f 390/354/2 411/351/2 412/355/2
f 418/353/2 387/367/2 389/359/2
f 389/359/2 417/362/2 418/353/2
f 410/350/2 388/374/2 387/367/2
f 387/367/2 418/353/2 410/350/2
f 417/362/2 389/359/2 407/378/2
f 407/378/2 435/379/2 417/362/2
f 439/385/2 381/368/2 372/364/2
f 372/364/2 438/376/2 439/385/2
f 440/386/2 386/373/2 381/368/2
f 381/368/2 439/385/2 440/386/2
f 443/375/2 371/363/2 391/356/2
f 391/356/2 442/380/2 443/375/2
f 438/376/2 372/364/2 371/363/2
f 371/363/2 443/375/2 438/376/2
f 442/380/2 391/356/2 412/355/2
f 412/355/2 457/384/2 442/380/2
f 463/390/2 383/370/2 382/369/2
f 382/369/2 462/389/2 463/390/2
f 462/389/2 382/369/2 385/372/2
f 385/372/2 464/391/2 462/389/2
f 465/392/2 406/383/2 383/370/2
f 383/370/2 463/390/2 465/392/2
f 475/393/2 384/371/2 386/373/2
f 386/373/2 474/388/2 475/393/2
f 464/391/2 385/372/2 384/371/2
f 384/371/2 475/393/2 464/391/2
f 474/388/2 386/373/2 440/386/2
f 440/386/2 488/387/2 474/388/2
f 516/407/2 488/387/2 440/386/2
f 440/386/2 514/406/2 516/407/2
f 520/417/2 443/375/2 442/380/2
f 442/380/2 521/416/2 520/417/2
f 521/416/2 442/380/2 457/384/2
f 457/384/2 522/419/2 521/416/2
f 518/420/2 438/376/2 443/375/2
f 443/375/2 520/417/2 518/420/2
f 515/421/2 439/385/2 438/376/2
f 438/376/2 518/420/2 515/421/2
f 514/406/2 440/386/2 439/385/2
f 439/385/2 515/421/2 514/406/2
f 498/394/2 411/351/2 410/350/2
f 410/350/2 494/397/2 498/394/2
f 494/397/2 410/350/2 418/353/2
f 418/353/2 495/399/2 494/397/2
f 523/395/2 412/355/2 411/351/2
f 411/351/2 498/394/2 523/395/2
f 495/399/2 418/353/2 417/362/2
f 417/362/2 490/398/2 495/399/2
f 490/398/2 417/362/2 435/379/2
f 435/379/2 491/400/2 490/398/2
f 524/396/2 457/384/2 412/355/2
f 412/355/2 523/395/2 524/396/2
f 8/8/2 402/377/2 401/381/2
f 401/381/2 7/7/2 8/8/2
f 7/7/2 401/381/2 405/382/2
f 405/382/2 15/15/2 7/7/2
f 496/410/2 407/378/2 402/377/2
f 402/377/2 8/8/2 496/410/2
f 15/15/2 405/382/2 406/383/2
f 406/383/2 489/409/2 15/15/2
f 489/409/2 406/383/2 465/392/2
f 465/392/2 502/408/2 489/409/2
f 499/413/2 435/379/2 407/378/2
f 407/378/2 496/410/2 499/413/2
f 500/427/2 463/390/2 462/389/2
f 462/389/2 501/426/2 500/427/2
f 503/430/2 465/392/2 463/390/2
f 463/390/2 500/427/2 503/430/2
f 501/426/2 462/389/2 464/391/2
f 464/391/2 562/428/2 501/426/2
f 511/424/2 474/388/2 488/387/2
f 488/387/2 512/431/2 511/424/2
f 512/431/2 488/387/2 516/407/2
f 516/407/2 527/432/2 512/431/2
f 510/433/2 475/393/2 474/388/2
f 474/388/2 511/424/2 510/433/2
f 562/428/2 464/391/2 475/393/2
f 475/393/2 510/433/2 562/428/2
f 566/437/2 497/394/2 492/397/2
f 492/397/2 565/436/2 566/437/2
f 565/436/2 492/397/2 493/399/2
f 493/399/2 567/438/2 565/436/2
f 567/438/2 493/399/2 408/398/2
f 408/398/2 564/439/2 567/438/2
f 568/440/2 455/395/2 497/394/2
f 497/394/2 566/437/2 568/440/2
f 573/444/2 566/437/2 565/436/2
f 565/436/2 572/443/2 573/444/2
f 572/443/2 565/436/2 567/438/2
f 567/438/2 576/445/2 572/443/2
f 576/445/2 567/438/2 564/439/2
f 564/439/2 571/446/2 576/445/2
f 580/447/2 568/440/2 566/437/2
f 566/437/2 573/444/2 580/447/2
f 604/495/2 504/497/2 505/490/2
f 505/490/2 603/494/2 604/495/2
f 603/494/2 505/490/2 508/498/2
f 508/498/2 611/496/2 603/494/2
f 616/500/2 604/495/2 603/494/2
f 603/494/2 615/499/2 616/500/2
f 615/499/2 603/494/2 611/496/2
f 611/496/2 620/501/2 615/499/2
f 624/505/2 616/500/2 615/499/2
f 615/499/2 623/504/2 624/505/2
f 623/504/2 615/499/2 620/501/2
f 620/501/2 625/506/2 623/504/2
f 628/512/2 611/496/2 508/498/2
f 508/498/2 627/511/2 628/512/2
f 629/514/2 620/501/2 611/496/2
f 611/496/2 628/512/2 629/514/2
f 630/515/2 625/506/2 620/501/2
f 620/501/2 629/514/2 630/515/2
f 642/513/2 616/500/2 624/505/2
f 624/505/2 641/516/2 642/513/2
f 643/509/2 604/495/2 616/500/2
f 616/500/2 642/513/2 643/509/2
f 645/510/2 504/497/2 604/495/2
f 604/495/2 643/509/2 645/510/2
f 724/566/5 723/565/5 722/564/5
f 722/564/5 725/567/5 724/566/5
f 729/570/5 724/566/5 725/567/5
f 725/567/5 730/343/5 729/570/5
f 733/572/5 732/571/5 731/346/5
f 731/346/5 734/573/5 733/572/5
f 723/565/5 733/572/5 734/573/5
f 734/573/5 722/564/5 723/565/5
f 739/578/5 738/577/5 737/576/5
f 737/576/5 740/579/5 739/578/5
f 744/582/5 739/578/5 740/579/5
f 740/579/5 745/341/5 744/582/5
f 746/583/5 729/570/5 730/343/5
f 730/343/5 747/584/5 746/583/5
f 738/577/5 746/583/5 747/584/5
f 747/584/5 737/576/5 738/577/5
f 754/590/5 753/348/5 750/587/5
f 750/587/5 751/588/5 754/590/5
f 755/591/5 754/590/5 751/588/5
f 751/588/5 756/592/5 755/591/5
f 760/596/5 755/591/5 756/592/5
f 756/592/5 758/594/5 760/596/5
f 761/344/5 760/596/5 758/594/5
f 758/594/5 762/597/5 761/344/5
f 766/600/5 761/344/5 762/597/5
f 762/597/5 764/598/5 766/600/5
f 767/601/5 766/600/5 764/598/5
f 764/598/5 768/602/5 767/601/5
f 772/606/5 767/601/5 768/602/5
f 768/602/5 770/604/5 772/606/5
f 773/345/5 772/606/5 770/604/5
f 770/604/5 774/607/5 773/345/5
f 732/571/5 779/611/5 780/612/5
f 780/612/5 731/346/5 732/571/5
f 787/347/5 786/618/5 783/615/5
f 783/615/5 788/619/5 787/347/5
f 788/619/5 783/615/5 784/616/5
f 784/616/5 789/620/5 788/619/5
f 789/620/5 784/616/5 792/623/5
f 792/623/5 794/625/5 789/620/5
f 794/625/5 792/623/5 793/624/5
f 793/624/5 753/348/5 794/625/5
f 731/346/5 780/612/5 797/628/5
f 797/628/5 799/630/5 731/346/5
f 799/630/5 797/628/5 798/629/5
f 798/629/5 800/631/5 799/630/5
f 800/631/5 798/629/5 802/633/5
f 802/633/5 803/634/5 800/631/5
f 803/634/5 802/633/5 786/618/5
f 786/618/5 787/347/5 803/634/5
f 753/348/5 793/624/5 805/636/5
f 805/636/5 750/587/5 753/348/5
f 808/638/5 807/357/5 773/345/5
f 773/345/5 809/639/5 808/638/5
f 811/640/5 810/528/5 807/357/5
f 807/357/5 808/638/5 811/640/5
f 816/643/5 815/642/5 810/528/5
f 810/528/5 811/640/5 816/643/5
f 818/644/5 817/340/5 815/642/5
f 815/642/5 816/643/5 818/644/5
f 809/639/5 773/345/5 774/607/5
f 774/607/5 822/647/5 809/639/5
f 825/650/5 824/649/5 817/340/5
f 817/340/5 818/644/5 825/650/5
f 827/651/5 826/529/5 824/649/5
f 824/649/5 825/650/5 827/651/5
f 831/654/5 830/365/5 826/529/5
f 826/529/5 827/651/5 831/654/5
f 832/655/5 745/341/5 830/365/5
f 830/365/5 831/654/5 832/655/5
f 835/656/5 744/582/5 745/341/5
f 745/341/5 832/655/5 835/656/5
f 912/529/2 918/705/2 895/342/2
f 895/342/2 892/340/2 912/529/2
f 920/543/2 918/705/2 912/529/2
f 912/529/2 919/542/2 920/543/2
f 928/711/2 920/543/2 919/542/2
f 919/542/2 927/710/2 928/711/2
f 934/715/2 928/711/2 927/710/2
f 927/710/2 933/714/2 934/715/2
f 942/680/2 934/715/2 933/714/2
f 933/714/2 941/536/2 942/680/2
f 916/742/2 942/680/2 941/536/2
f 941/536/2 915/745/2 916/742/2
f 963/762/2 573/761/2 572/756/2
f 572/756/2 962/758/2 963/762/2
f 962/758/2 572/756/2 576/755/2
f 576/755/2 965/757/2 962/758/2
f 965/757/2 576/755/2 571/759/2
f 571/759/2 959/760/2 965/757/2
f 966/764/2 580/763/2 573/761/2
f 573/761/2 963/762/2 966/764/2
f 975/768/2 963/762/2 962/758/2
f 962/758/2 974/766/2 975/768/2
f 974/766/2 962/758/2 965/757/2
f 965/757/2 977/765/2 974/766/2
f 977/765/2 965/757/2 959/760/2
f 959/760/2 971/767/2 977/765/2
f 978/769/2 966/764/2 963/762/2
f 963/762/2 975/768/2 978/769/2
f 987/775/2 975/768/2 974/766/2
f 974/766/2 986/771/2 987/775/2
f 986/771/2 974/766/2 977/765/2
f 977/765/2 989/770/2 986/771/2
f 989/770/2 977/765/2 971/767/2
f 971/767/2 983/772/2 989/770/2
f 990/776/2 978/769/2 975/768/2
f 975/768/2 987/775/2 990/776/2
f 378/785/2 987/775/2 986/771/2
f 986/771/2 993/784/2 378/785/2
f 993/784/2 986/771/2 989/770/2
f 989/770/2 358/779/2 993/784/2
f 358/779/2 989/770/2 983/772/2
f 983/772/2 360/778/2 358/779/2
f 380/786/2 990/776/2 987/775/2
f 987/775/2 378/785/2 380/786/2
f 1081/845/2 1080/843/2 152/842/2
f 152/842/2 1076/844/2 1081/845/2
f 1073/848/2 147/847/2 1080/843/2
f 1080/843/2 1081/845/2 1073/848/2
f 1086/850/2 1081/845/2 1076/844/2
f 1076/844/2 1085/849/2 1086/850/2
f 1082/851/2 1073/848/2 1081/845/2
f 1081/845/2 1086/850/2 1082/851/2
f 143/133/2 152/842/2 1080/843/2
f 1080/843/2 1088/129/2 143/133/2
f 1088/129/2 1080/843/2 147/847/2
f 147/847/2 135/130/2 1088/129/2

usemtl IndustrialFloor
f 441/430/5 482/408/5 479/392/5
f 426/384/5 425/355/5 662/61/5
f 395/396/5 426/384/5 662/61/5
f 395/396/5 662/61/5 393/395/5
f 655/64/5 450/362/5 452/379/5
f 454/400/5 655/64/5 452/379/5
f 454/400/5 453/398/5 655/64/5
f 687/444/5 672/437/5 673/532/5
f 673/532/5 674/436/5 688/443/5
f 687/444/5 673/532/5 688/443/5
f 575/447/5 574/440/5 678/534/5
f 678/534/5 672/437/5 687/444/5
f 575/447/5 678/534/5 687/444/5
f 689/445/5 683/438/5 684/538/5
f 684/538/5 577/439/5 579/446/5
f 689/445/5 684/538/5 579/446/5
f 688/443/5 674/436/5 686/541/5
f 686/541/5 683/438/5 689/445/5
f 688/443/5 686/541/5 689/445/5
f 648/350/5 709/374/5 708/558/5
f 708/558/5 707/367/5 656/353/5
f 648/350/5 708/558/5 656/353/5
f 649/351/5 711/354/5 710/559/5
f 710/559/5 709/374/5 648/350/5
f 649/351/5 710/559/5 648/350/5
f 690/546/5 557/393/5 717/371/5
f 557/393/5 690/546/5 461/388/5
f 690/546/5 459/373/5 461/388/5
f 719/562/5 560/389/5 720/369/5
f 560/389/5 719/562/5 559/391/5
f 719/562/5 718/372/5 559/391/5
f 721/563/5 559/391/5 718/372/5
f 559/391/5 721/563/5 557/393/5
f 721/563/5 717/371/5 557/393/5
f 694/550/5 478/390/5 476/370/5
f 478/390/5 694/550/5 560/389/5
f 694/550/5 720/369/5 560/389/5
f 656/353/5 707/367/5 696/552/5
f 653/522/5 449/359/5 450/362/5
f 653/522/5 696/552/5 449/359/5
f 656/353/5 696/552/5 653/522/5
f 425/355/5 423/356/5 700/554/5
f 660/525/5 711/354/5 649/351/5
f 660/525/5 700/554/5 711/354/5
f 425/355/5 700/554/5 660/525/5
f 706/368/5 735/574/5 736/575/5
f 705/557/5 706/368/5 736/575/5
f 705/557/5 736/575/5 726/568/5
f 705/557/5 726/568/5 727/569/5
f 704/364/5 705/557/5 727/569/5
f 704/364/5 727/569/5 728/543/5
f 704/364/5 728/543/5 748/585/5
f 703/556/5 704/364/5 748/585/5
f 703/556/5 748/585/5 741/580/5
f 703/556/5 741/580/5 742/581/5
f 702/363/5 703/556/5 742/581/5
f 702/363/5 742/581/5 743/542/5
f 759/595/5 757/593/5 716/561/5
f 713/361/5 759/595/5 716/561/5
f 713/361/5 763/545/5 759/595/5
f 752/589/5 749/586/5 712/360/5
f 716/561/5 752/589/5 712/360/5
f 716/561/5 757/593/5 752/589/5
f 771/605/5 769/603/5 714/560/5
f 715/358/5 771/605/5 714/560/5
f 715/358/5 775/544/5 771/605/5
f 765/599/5 763/545/5 713/361/5
f 714/560/5 765/599/5 713/361/5
f 714/560/5 769/603/5 765/599/5
f 691/547/5 692/548/5 776/608/5
f 706/368/5 691/547/5 776/608/5
f 706/368/5 776/608/5 735/574/5
f 778/610/5 717/371/5 777/609/5
f 717/371/5 778/610/5 690/546/5
f 778/610/5 692/548/5 690/546/5
f 791/622/5 720/369/5 790/621/5
f 720/369/5 791/622/5 719/562/5
f 791/622/5 781/613/5 719/562/5
f 782/614/5 719/562/5 781/613/5
f 719/562/5 782/614/5 718/372/5
f 782/614/5 785/617/5 718/372/5
f 801/632/5 718/372/5 785/617/5
f 718/372/5 801/632/5 721/563/5
f 801/632/5 795/626/5 721/563/5
f 796/627/5 721/563/5 795/626/5
f 721/563/5 796/627/5 717/371/5
f 796/627/5 777/609/5 717/371/5
f 806/637/5 695/551/5 693/549/5
f 712/360/5 806/637/5 693/549/5
f 712/360/5 749/586/5 806/637/5
f 804/635/5 694/550/5 695/551/5
f 694/550/5 804/635/5 720/369/5
f 804/635/5 790/621/5 720/369/5
f 709/374/5 819/2/5 820/645/5
f 820/645/5 812/641/5 708/558/5
f 709/374/5 820/645/5 708/558/5
f 708/558/5 812/641/5 813/352/5
f 813/352/5 814/1/5 707/367/5
f 708/558/5 813/352/5 707/367/5
f 821/646/5 775/544/5 715/358/5
f 697/67/5 821/646/5 715/358/5
f 697/67/5 698/553/5 821/646/5
f 707/367/5 814/1/5 823/648/5
f 823/648/5 698/553/5 696/552/5
f 707/367/5 823/648/5 696/552/5
f 711/354/5 833/5/5 834/349/5
f 834/349/5 828/652/5 710/559/5
f 711/354/5 834/349/5 710/559/5
f 710/559/5 828/652/5 829/653/5
f 829/653/5 819/2/5 709/374/5
f 710/559/5 829/653/5 709/374/5
f 702/363/5 743/542/5 836/657/5
f 699/68/5 702/363/5 836/657/5
f 699/68/5 836/657/5 701/555/5
f 700/554/5 701/555/5 837/658/5
f 837/658/5 833/5/5 711/354/5
f 700/554/5 837/658/5 711/354/5
f 13/22/5 11/421/5 847/667/5
f 21/21/5 13/22/5 847/667/5
f 21/21/5 847/667/5 846/420/5
f 21/21/5 846/420/5 848/668/5
f 20/30/5 21/21/5 848/668/5
f 20/30/5 848/668/5 18/417/5
f 191/153/5 894/671/5 893/670/5
f 178/147/5 191/153/5 893/670/5
f 178/147/5 893/670/5 181/150/5
f 201/158/5 217/166/5 898/675/5
f 191/153/5 201/158/5 898/675/5
f 191/153/5 898/675/5 894/671/5
f 902/492/5 901/450/5 583/448/5
f 561/428/5 902/492/5 583/448/5
f 561/428/5 558/425/5 902/492/5
f 906/450/5 595/493/5 591/490/5
f 583/488/5 906/450/5 591/490/5
f 583/488/5 901/492/5 906/450/5
f 612/499/5 1014/504/5 1005/792/5
f 1005/792/5 633/505/5 613/500/5
f 612/499/5 1005/792/5 613/500/5
f 614/501/5 638/506/5 1012/793/5
f 1012/793/5 1014/504/5 612/499/5
f 614/501/5 1012/793/5 612/499/5
f 1021/815/5 979/770/5 992/779/5
f 979/770/5 1021/815/5 980/771/5
f 1021/815/5 1039/784/5 980/771/5
f 1033/816/5 980/771/5 1039/784/5
f 980/771/5 1033/816/5 985/775/5
f 1033/816/5 994/785/5 985/775/5
f 1105/859/5 1077/840/5 1109/860/5
f 1077/840/5 1105/859/5 1078/841/5
f 1105/859/5 1106/858/5 1078/841/5
f 1094/863/5 1079/846/5 1093/864/5
f 1079/846/5 1094/863/5 1077/840/5
f 1094/863/5 1109/860/5 1077/840/5
f 23/24/5 13/22/5 21/21/5
f 21/21/5 22/23/5 23/24/5
f 22/23/5 21/21/5 20/30/5
f 20/30/5 28/31/5 22/23/5
f 34/44/5 23/24/5 22/23/5
f 22/23/5 33/43/5 34/44/5
f 33/43/5 22/23/5 28/31/5
f 28/31/5 43/49/5 33/43/5
f 5/53/5 34/44/5 33/43/5
f 33/43/5 2/52/5 5/53/5
f 2/52/5 33/43/5 43/49/5
f 43/49/5 1/58/5 2/52/5
f 59/66/5 1/58/5 43/49/5
f 43/49/5 58/65/5 59/66/5
f 58/65/5 43/49/5 28/31/5
f 28/31/5 60/71/5 58/65/5
f 64/74/5 23/24/5 34/44/5
f 34/44/5 66/73/5 64/74/5
f 66/73/5 34/44/5 5/53/5
f 5/53/5 69/77/5 66/73/5
f 91/91/5 58/65/5 60/71/5
f 60/71/5 90/90/5 91/91/5
f 96/97/5 59/66/5 58/65/5
f 58/65/5 91/91/5 96/97/5
f 103/103/5 91/91/5 90/90/5
f 90/90/5 102/102/5 103/103/5
f 108/106/5 96/97/5 91/91/5
f 91/91/5 103/103/5 108/106/5
f 115/111/5 103/103/5 102/102/5
f 102/102/5 114/110/5 115/111/5
f 120/114/5 108/106/5 103/103/5
f 103/103/5 115/111/5 120/114/5
f 127/119/5 115/111/5 114/110/5
f 114/110/5 126/118/5 127/119/5
f 132/122/5 120/114/5 115/111/5
f 115/111/5 127/119/5 132/122/5
f 139/128/5 127/119/5 126/118/5
f 126/118/5 138/127/5 139/128/5
f 144/132/5 132/122/5 127/119/5
f 127/119/5 139/128/5 144/132/5
f 150/137/5 139/128/5 138/127/5
f 138/127/5 149/136/5 150/137/5
f 153/139/5 144/132/5 139/128/5
f 139/128/5 150/137/5 153/139/5
f 166/141/5 66/73/5 69/77/5
f 69/77/5 165/140/5 166/141/5
f 154/144/5 64/74/5 66/73/5
f 66/73/5 166/141/5 154/144/5
f 178/147/5 166/141/5 165/140/5
f 165/140/5 177/146/5 178/147/5
f 181/150/5 154/144/5 166/141/5
f 166/141/5 178/147/5 181/150/5
f 191/153/5 178/147/5 177/146/5
f 177/146/5 186/152/5 191/153/5
f 201/158/5 191/153/5 186/152/5
f 186/152/5 198/157/5 201/158/5
f 214/163/5 201/158/5 198/157/5
f 198/157/5 208/162/5 214/163/5
f 218/167/5 217/166/5 201/158/5
f 201/158/5 214/163/5 218/167/5
f 45/171/5 214/163/5 208/162/5
f 208/162/5 52/170/5 45/171/5
f 44/174/5 218/167/5 214/163/5
f 214/163/5 45/171/5 44/174/5
f 229/181/5 177/146/5 165/140/5
f 165/140/5 228/180/5 229/181/5
f 228/180/5 165/140/5 69/77/5
f 69/77/5 230/185/5 228/180/5
f 241/195/5 229/181/5 228/180/5
f 228/180/5 240/194/5 241/195/5
f 240/194/5 228/180/5 230/185/5
f 230/185/5 242/199/5 240/194/5
f 253/209/5 241/195/5 240/194/5
f 240/194/5 252/208/5 253/209/5
f 252/208/5 240/194/5 242/199/5
f 242/199/5 254/213/5 252/208/5
f 265/223/5 253/209/5 252/208/5
f 252/208/5 264/222/5 265/223/5
f 264/222/5 252/208/5 254/213/5
f 254/213/5 266/227/5 264/222/5
f 277/237/5 265/223/5 264/222/5
f 264/222/5 276/236/5 277/237/5
f 276/236/5 264/222/5 266/227/5
f 266/227/5 278/241/5 276/236/5
f 289/251/5 277/237/5 276/236/5
f 276/236/5 288/250/5 289/251/5
f 288/250/5 276/236/5 278/241/5
f 278/241/5 290/255/5 288/250/5
f 301/265/5 289/251/5 288/250/5
f 288/250/5 300/264/5 301/265/5
f 300/264/5 288/250/5 290/255/5
f 290/255/5 302/269/5 300/264/5
f 313/279/5 301/265/5 300/264/5
f 300/264/5 312/278/5 313/279/5
f 312/278/5 300/264/5 302/269/5
f 302/269/5 314/283/5 312/278/5
f 325/293/5 313/279/5 312/278/5
f 312/278/5 324/292/5 325/293/5
f 324/292/5 312/278/5 314/283/5
f 314/283/5 326/297/5 324/292/5
f 172/307/5 325/293/5 324/292/5
f 324/292/5 159/306/5 172/307/5
f 159/306/5 324/292/5 326/297/5
f 326/297/5 157/311/5 159/306/5
f 426/384/5 424/380/5 423/356/5
f 423/356/5 425/355/5 426/384/5
f 452/379/5 450/362/5 449/359/5
f 449/359/5 451/378/5 452/379/5
f 461/388/5 459/373/5 458/386/5
f 458/386/5 460/387/5 461/388/5
f 479/392/5 477/383/5 476/370/5
f 476/370/5 478/390/5 479/392/5
f 533/7/5 531/381/5 530/382/5
f 530/382/5 532/15/5 533/7/5
f 535/8/5 534/377/5 531/381/5
f 531/381/5 533/7/5 535/8/5
f 480/409/5 477/383/5 479/392/5
f 479/392/5 482/408/5 480/409/5
f 416/413/5 452/379/5 451/378/5
f 451/378/5 414/410/5 416/413/5
f 454/400/5 452/379/5 416/413/5
f 416/413/5 538/422/5 454/400/5
f 549/421/5 547/385/5 546/376/5
f 546/376/5 548/420/5 549/421/5
f 548/420/5 546/376/5 553/375/5
f 553/375/5 554/417/5 548/420/5
f 469/407/5 460/387/5 458/386/5
f 458/386/5 467/406/5 469/407/5
f 429/419/5 426/384/5 395/396/5
f 395/396/5 544/423/5 429/419/5
f 427/416/5 424/380/5 426/384/5
f 426/384/5 429/419/5 427/416/5
f 558/425/5 557/393/5 461/388/5
f 461/388/5 403/424/5 558/425/5
f 375/429/5 560/389/5 559/391/5
f 559/391/5 561/428/5 375/429/5
f 561/428/5 559/391/5 557/393/5
f 557/393/5 558/425/5 561/428/5
f 403/424/5 461/388/5 460/387/5
f 460/387/5 404/431/5 403/424/5
f 376/427/5 478/390/5 560/389/5
f 560/389/5 375/429/5 376/427/5
f 441/430/5 479/392/5 478/390/5
f 478/390/5 376/427/5 441/430/5
f 404/431/5 460/387/5 469/407/5
f 469/407/5 555/432/5 404/431/5
f 584/449/5 375/429/5 561/428/5
f 561/428/5 583/448/5 584/449/5
f 592/491/5 584/489/5 583/488/5
f 583/488/5 591/490/5 592/491/5
f 594/495/5 592/491/5 591/490/5
f 591/490/5 593/494/5 594/495/5
f 593/494/5 591/490/5 595/493/5
f 595/493/5 596/496/5 593/494/5
f 613/500/5 594/495/5 593/494/5
f 593/494/5 612/499/5 613/500/5
f 612/499/5 593/494/5 596/496/5
f 596/496/5 614/501/5 612/499/5
f 605/510/5 592/491/5 594/495/5
f 594/495/5 607/509/5 605/510/5
f 607/509/5 594/495/5 613/500/5
f 613/500/5 617/513/5 607/509/5
f 617/513/5 613/500/5 633/505/5
f 633/505/5 626/516/5 617/513/5
f 640/515/5 638/506/5 614/501/5
f 614/501/5 639/514/5 640/515/5
f 639/514/5 614/501/5 596/496/5
f 596/496/5 602/512/5 639/514/5
f 602/512/5 596/496/5 595/493/5
f 595/493/5 601/511/5 602/512/5
f 654/523/5 653/522/5 450/362/5
f 450/362/5 655/64/5 654/523/5
f 659/524/5 654/523/5 655/64/5
f 655/64/5 453/398/5 659/524/5
f 662/61/5 425/355/5 660/525/5
f 660/525/5 661/526/5 662/61/5
f 393/395/5 662/61/5 661/526/5
f 661/526/5 663/527/5 393/395/5
f 672/437/5 671/82/5 669/531/5
f 669/531/5 673/532/5 672/437/5
f 673/532/5 669/531/5 670/80/5
f 670/80/5 674/436/5 673/532/5
f 574/440/5 677/83/5 676/533/5
f 676/533/5 678/534/5 574/440/5
f 678/534/5 676/533/5 671/82/5
f 671/82/5 672/437/5 678/534/5
f 683/438/5 682/79/5 681/537/5
f 681/537/5 684/538/5 683/438/5
f 684/538/5 681/537/5 679/81/5
f 679/81/5 577/439/5 684/538/5
f 674/436/5 670/80/5 685/540/5
f 685/540/5 686/541/5 674/436/5
f 686/541/5 685/540/5 682/79/5
f 682/79/5 683/438/5 686/541/5
f 691/547/5 459/373/5 690/546/5
f 690/546/5 692/548/5 691/547/5
f 695/551/5 694/550/5 476/370/5
f 476/370/5 693/549/5 695/551/5
f 696/552/5 698/553/5 697/67/5
f 697/67/5 449/359/5 696/552/5
f 423/356/5 699/68/5 701/555/5
f 701/555/5 700/554/5 423/356/5
f 727/569/5 726/568/5 723/565/5
f 723/565/5 724/566/5 727/569/5
f 728/543/5 727/569/5 724/566/5
f 724/566/5 729/570/5 728/543/5
f 736/575/5 735/574/5 732/571/5
f 732/571/5 733/572/5 736/575/5
f 726/568/5 736/575/5 733/572/5
f 733/572/5 723/565/5 726/568/5
f 742/581/5 741/580/5 738/577/5
f 738/577/5 739/578/5 742/581/5
f 743/542/5 742/581/5 739/578/5
f 739/578/5 744/582/5 743/542/5
f 748/585/5 728/543/5 729/570/5
f 729/570/5 746/583/5 748/585/5
f 741/580/5 748/585/5 746/583/5
f 746/583/5 738/577/5 741/580/5
f 751/588/5 750/587/5 749/586/5
f 749/586/5 752/589/5 751/588/5
f 756/592/5 751/588/5 752/589/5
f 752/589/5 757/593/5 756/592/5
f 758/594/5 756/592/5 757/593/5
f 757/593/5 759/595/5 758/594/5
f 762/597/5 758/594/5 759/595/5
f 759/595/5 763/545/5 762/597/5
f 764/598/5 762/597/5 763/545/5
f 763/545/5 765/599/5 764/598/5
f 768/602/5 764/598/5 765/599/5
f 765/599/5 769/603/5 768/602/5
f 770/604/5 768/602/5 769/603/5
f 769/603/5 771/605/5 770/604/5
f 774/607/5 770/604/5 771/605/5
f 771/605/5 775/544/5 774/607/5
f 779/611/5 778/610/5 777/609/5
f 777/609/5 780/612/5 779/611/5
f 776/608/5 692/548/5 778/610/5
f 778/610/5 779/611/5 776/608/5
f 735/574/5 776/608/5 779/611/5
f 779/611/5 732/571/5 735/574/5
f 783/615/5 782/614/5 781/613/5
f 781/613/5 784/616/5 783/615/5
f 786/618/5 785/617/5 782/614/5
f 782/614/5 783/615/5 786/618/5
f 792/623/5 791/622/5 790/621/5
f 790/621/5 793/624/5 792/623/5
f 784/616/5 781/613/5 791/622/5
f 791/622/5 792/623/5 784/616/5
f 797/628/5 796/627/5 795/626/5
f 795/626/5 798/629/5 797/628/5
f 780/612/5 777/609/5 796/627/5
f 796/627/5 797/628/5 780/612/5
f 802/633/5 801/632/5 785/617/5
f 785/617/5 786/618/5 802/633/5
f 798/629/5 795/626/5 801/632/5
f 801/632/5 802/633/5 798/629/5
f 805/636/5 804/635/5 695/551/5
f 695/551/5 806/637/5 805/636/5
f 793/624/5 790/621/5 804/635/5
f 804/635/5 805/636/5 793/624/5
f 750/587/5 805/636/5 806/637/5
f 806/637/5 749/586/5 750/587/5
f 812/641/5 811/640/5 808/638/5
f 808/638/5 813/352/5 812/641/5
f 813/352/5 808/638/5 809/639/5
f 809/639/5 814/1/5 813/352/5
f 819/2/5 818/644/5 816/643/5
f 816/643/5 820/645/5 819/2/5
f 820/645/5 816/643/5 811/640/5
f 811/640/5 812/641/5 820/645/5
f 822/647/5 774/607/5 775/544/5
f 775/544/5 821/646/5 822/647/5
f 814/1/5 809/639/5 822/647/5
f 822/647/5 823/648/5 814/1/5
f 823/648/5 822/647/5 821/646/5
f 821/646/5 698/553/5 823/648/5
f 828/652/5 827/651/5 825/650/5
f 825/650/5 829/653/5 828/652/5
f 829/653/5 825/650/5 818/644/5
f 818/644/5 819/2/5 829/653/5
f 833/5/5 832/655/5 831/654/5
f 831/654/5 834/349/5 833/5/5
f 834/349/5 831/654/5 827/651/5
f 827/651/5 828/652/5 834/349/5
f 836/657/5 743/542/5 744/582/5
f 744/582/5 835/656/5 836/657/5
f 701/555/5 836/657/5 835/656/5
f 835/656/5 837/658/5 701/555/5
f 837/658/5 835/656/5 832/655/5
f 832/655/5 833/5/5 837/658/5
f 917/704/5 911/528/5 893/340/5
f 893/340/5 898/342/5 917/704/5
f 953/740/5 945/535/5 944/722/5
f 944/722/5 954/739/5 953/740/5
f 902/754/5 953/740/5 954/739/5
f 954/739/5 906/753/5 902/754/5
f 956/758/5 688/756/5 689/755/5
f 689/755/5 955/757/5 956/758/5
f 955/757/5 689/755/5 579/759/5
f 579/759/5 957/760/5 955/757/5
f 961/762/5 687/761/5 688/756/5
f 688/756/5 956/758/5 961/762/5
f 964/764/5 575/763/5 687/761/5
f 687/761/5 961/762/5 964/764/5
f 968/766/5 956/758/5 955/757/5
f 955/757/5 967/765/5 968/766/5
f 967/765/5 955/757/5 957/760/5
f 957/760/5 969/767/5 967/765/5
f 973/768/5 961/762/5 956/758/5
f 956/758/5 968/766/5 973/768/5
f 976/769/5 964/764/5 961/762/5
f 961/762/5 973/768/5 976/769/5
f 980/771/5 968/766/5 967/765/5
f 967/765/5 979/770/5 980/771/5
f 979/770/5 967/765/5 969/767/5
f 969/767/5 981/772/5 979/770/5
f 985/775/5 973/768/5 968/766/5
f 968/766/5 980/771/5 985/775/5
f 988/776/5 976/769/5 973/768/5
f 973/768/5 985/775/5 988/776/5
f 992/779/5 979/770/5 981/772/5
f 981/772/5 991/778/5 992/779/5
f 995/786/5 988/776/5 985/775/5
f 985/775/5 994/785/5 995/786/5
f 1004/795/5 1005/792/5 1014/504/5
f 1014/504/5 1003/794/5 1004/795/5
f 1003/794/5 1014/504/5 1012/793/5
f 1012/793/5 1007/805/5 1003/794/5
f 1078/841/5 153/139/5 150/137/5
f 150/137/5 1077/840/5 1078/841/5
f 1077/840/5 150/137/5 149/136/5
f 149/136/5 1079/846/5 1077/840/5

usemtl ConcreteWall
f 337/318/3 338/319/3 336/317/3 335/316/3
f 338/322/1 340/323/1 339/321/1 336/320/1
f 340/326/4 342/327/4 341/325/4 339/324/4
f 342/330/6 337/331/6 335/329/6 341/328/6
f 342/334/5 340/335/5 338/333/5 337/332/5
f 335/338/2 336/339/2 339/337/2 341/336/2
f 1051/828/5 1050/790/5 1049/342/5 1048/704/5
f 1050/790/5 1055/829/5 1054/705/5 1049/342/5
f 1049/342/5 1054/705/5 1063/830/5 1062/660/5
f 1048/704/5 1049/342/5 1062/660/5 1068/831/5
f 1068/834/28 1062/835/28 1064/833/28 1070/832/28
f 1054/838/29 1055/839/29 1052/837/29 1056/836/29
f 1048/838/30 1068/839/30 1070/837/30 1047/836/30
f 1050/838/31 1051/839/31 1042/837/31 1043/836/31
f 1062/838/32 1063/839/32 1060/837/32 1064/836/32
f 1063/834/33 1054/835/33 1056/833/33 1060/832/33
f 1051/834/34 1048/835/34 1047/833/34 1042/832/34
f 1055/834/35 1050/835/35 1043/833/35 1052/832/35

usemtl IndustrialCopper
f 650/40/5 649/351/5 648/350/5
f 652/397/5 650/40/5 648/350/5
f 652/397/5 651/394/5 650/40/5
f 648/350/5 656/353/5 657/42/5
f 652/397/5 648/350/5 657/42/5
f 652/397/5 657/42/5 658/399/5
f 658/344/4 666/345/4 665/528/4
f 658/344/4 665/528/4 652/342/4
f 664/340/4 652/342/4 665/528/4
f 652/342/4 664/340/4 668/529/4
f 652/342/4 668/529/4 651/343/4
f 667/341/4 651/343/4 668/529/4
f 675/542/4 663/543/4 667/341/4
f 393/364/4 663/543/4 675/542/4
f 392/363/4 393/364/4 675/542/4
f 663/543/4 651/343/4 667/341/4
f 680/544/4 659/545/4 445/358/4
f 658/344/4 659/545/4 680/544/4
f 666/345/4 658/344/4 680/544/4
f 659/545/4 453/361/4 445/358/4
f 553/375/5 702/363/5 699/68/5
f 424/380/5 553/375/5 699/68/5
f 424/380/5 699/68/5 423/356/5
f 546/376/5 704/364/5 703/556/5
f 553/375/5 546/376/5 703/556/5
f 553/375/5 703/556/5 702/363/5
f 547/385/5 706/368/5 705/557/5
f 546/376/5 547/385/5 705/557/5
f 546/376/5 705/557/5 704/364/5
f 458/386/5 459/373/5 691/547/5
f 547/385/5 458/386/5 691/547/5
f 547/385/5 691/547/5 706/368/5
f 693/549/5 476/370/5 477/383/5
f 530/382/5 693/549/5 477/383/5
f 530/382/5 712/360/5 693/549/5
f 714/560/5 713/361/5 531/381/5
f 534/377/5 714/560/5 531/381/5
f 534/377/5 715/358/5 714/560/5
f 716/561/5 712/360/5 530/382/5
f 531/381/5 716/561/5 530/382/5
f 531/381/5 713/361/5 716/561/5
f 697/67/5 715/358/5 534/377/5
f 451/378/5 697/67/5 534/377/5
f 451/378/5 449/359/5 697/67/5
f 532/15/5 530/382/5 477/383/5
f 477/383/5 480/409/5 532/15/5
f 414/410/5 451/378/5 534/377/5
f 534/377/5 535/8/5 414/410/5
f 554/417/5 553/375/5 424/380/5
f 424/380/5 427/416/5 554/417/5
f 467/406/5 458/386/5 547/385/5
f 547/385/5 549/421/5 467/406/5
f 657/42/5 656/353/5 653/522/5
f 653/522/5 654/523/5 657/42/5
f 658/399/5 657/42/5 654/523/5
f 654/523/5 659/524/5 658/399/5
f 661/526/5 660/525/5 649/351/5
f 649/351/5 650/40/5 661/526/5
f 663/527/5 661/526/5 650/40/5
f 650/40/5 651/394/5 663/527/5
f 669/531/5 668/530/5 664/397/5
f 664/397/5 670/80/5 669/531/5
f 671/82/5 667/394/5 668/530/5
f 668/530/5 669/531/5 671/82/5
f 676/533/5 675/527/5 667/394/5
f 667/394/5 671/82/5 676/533/5
f 677/83/5 392/395/5 675/527/5
f 675/527/5 676/533/5 677/83/5
f 681/537/5 680/524/5 445/398/5
f 445/398/5 679/81/5 681/537/5
f 682/79/5 666/399/5 680/524/5
f 680/524/5 681/537/5 682/79/5
f 685/540/5 665/539/5 666/399/5
f 666/399/5 682/79/5 685/540/5
f 670/80/5 664/397/5 665/539/5
f 665/539/5 685/540/5 670/80/5
f 854/641/1 850/528/1 851/345/1
f 851/345/1 855/1/1 854/641/1
f 856/2/1 849/340/1 850/528/1
f 850/528/1 854/641/1 856/2/1
f 857/652/1 853/529/1 849/340/1
f 849/340/1 856/2/1 857/652/1
f 858/5/1 852/341/1 853/529/1
f 853/529/1 857/652/1 858/5/1
f 860/555/1 859/542/1 852/341/1
f 852/341/1 858/5/1 860/555/1
f 855/1/1 851/345/1 864/544/1
f 864/544/1 863/553/1 855/1/1
f 873/1/6 872/641/6 870/528/6
f 870/528/6 871/345/6 873/1/6
f 872/641/6 874/2/6 869/340/6
f 869/340/6 870/528/6 872/641/6
f 874/2/6 878/652/6 868/529/6
f 868/529/6 869/340/6 874/2/6
f 878/652/6 879/5/6 867/341/6
f 867/341/6 868/529/6 878/652/6
f 882/553/6 873/1/6 871/345/6
f 871/345/6 883/544/6 882/553/6
f 879/5/6 887/555/6 886/542/6
f 886/542/6 867/341/6 879/5/6
f 1040/340/5 1043/790/5 1042/828/5
f 1042/828/5 1041/528/5 1040/340/5
f 1041/528/5 1042/828/5 1045/601/5
f 1045/601/5 1044/345/5 1041/528/5
f 1042/828/5 1047/704/5 1046/344/5
f 1046/344/5 1045/601/5 1042/828/5
f 1053/529/5 1052/829/5 1043/790/5
f 1043/790/5 1040/340/5 1053/529/5
f 1058/576/5 1057/343/5 1056/705/5
f 1056/705/5 1052/829/5 1058/576/5
f 1059/341/5 1058/576/5 1052/829/5
f 1052/829/5 1053/529/5 1059/341/5
f 1057/343/5 1061/564/5 1060/830/5
f 1060/830/5 1056/705/5 1057/343/5
f 1060/830/5 1066/631/5 1065/347/5
f 1065/347/5 1064/660/5 1060/830/5
f 1061/564/5 1067/346/5 1066/631/5
f 1066/631/5 1060/830/5 1061/564/5
f 1047/704/5 1070/831/5 1069/591/5
f 1069/591/5 1046/344/5 1047/704/5
f 1070/831/5 1072/620/5 1071/348/5
f 1071/348/5 1069/591/5 1070/831/5
f 1064/660/5 1065/347/5 1072/620/5
f 1072/620/5 1070/831/5 1064/660/5

usemtl ConcreteFloor
f 41/47/2 42/48/2 40/26/2 39/25/2
f 47/51/2 41/47/2 39/25/2 46/29/2
f 50/56/2 51/57/2 42/48/2 41/47/2
f 53/60/2 50/56/2 41/47/2 47/51/2
f 61/69/2 62/70/2 42/48/2 51/57/2
f 62/70/2 63/72/2 40/26/2 42/48/2
f 67/75/2 68/76/2 47/51/2 46/29/2
f 68/76/2 72/78/2 53/60/2 47/51/2
f 92/92/2 93/93/2 63/72/2 62/70/2
f 98/100/2 92/92/2 62/70/2 61/69/2
f 104/104/2 105/105/2 93/93/2 92/92/2
f 110/108/2 104/104/2 92/92/2 98/100/2
f 116/112/2 117/113/2 105/105/2 104/104/2
f 122/116/2 116/112/2 104/104/2 110/108/2
f 128/120/2 129/121/2 117/113/2 116/112/2
f 134/123/2 128/120/2 116/112/2 122/116/2
f 140/129/2 141/130/2 129/121/2 128/120/2
f 146/133/2 140/129/2 128/120/2 134/123/2
f 167/142/2 168/143/2 72/78/2 68/76/2
f 170/145/2 167/142/2 68/76/2 67/75/2
f 179/148/2 180/149/2 168/143/2 167/142/2
f 183/151/2 179/148/2 167/142/2 170/145/2
f 192/154/2 193/155/2 180/149/2 179/148/2
f 196/156/2 192/154/2 179/148/2 183/151/2
f 202/159/2 203/160/2 193/155/2 192/154/2
f 206/161/2 202/159/2 192/154/2 196/156/2
f 215/164/2 216/165/2 203/160/2 202/159/2
f 220/168/2 215/164/2 202/159/2 206/161/2
f 221/172/2 222/173/2 216/165/2 215/164/2
f 223/175/2 221/172/2 215/164/2 220/168/2
f 232/186/2 233/187/2 168/143/2 180/149/2
f 233/187/2 235/189/2 72/78/2 168/143/2
f 244/200/2 245/201/2 233/187/2 232/186/2
f 245/201/2 247/203/2 235/189/2 233/187/2
f 256/214/2 257/215/2 245/201/2 244/200/2
f 257/215/2 259/217/2 247/203/2 245/201/2
f 268/228/2 269/229/2 257/215/2 256/214/2
f 269/229/2 271/231/2 259/217/2 257/215/2
f 280/242/2 281/243/2 269/229/2 268/228/2
f 281/243/2 283/245/2 271/231/2 269/229/2
f 292/256/2 293/257/2 281/243/2 280/242/2
f 293/257/2 295/259/2 283/245/2 281/243/2
f 304/270/2 305/271/2 293/257/2 292/256/2
f 305/271/2 307/273/2 295/259/2 293/257/2
f 316/284/2 317/285/2 305/271/2 304/270/2
f 317/285/2 319/287/2 307/273/2 305/271/2
f 328/298/2 329/299/2 317/285/2 316/284/2
f 329/299/2 331/301/2 319/287/2 317/285/2
f 332/312/2 333/313/2 329/299/2 328/298/2
f 333/313/2 334/315/2 331/301/2 329/299/2
f 259/472/4 271/474/4 270/230/4 258/216/4

usemtl IndustrialWall_1
f 484/359/6 885/67/6 486/378/6
f 885/67/6 483/377/6 486/378/6
f 885/67/6 481/358/6 483/377/6
f 436/380/3 370/356/3 369/355/3
f 369/355/3 444/384/3 436/380/3
f 495/394/4 493/351/4 492/350/4
f 492/350/4 494/397/4 495/394/4
f 496/398/1 432/362/1 434/379/1
f 434/379/1 499/400/1 496/398/1
f 500/398/3 367/362/3 398/379/3
f 398/379/3 503/400/3 500/398/3
f 509/394/3 508/351/3 505/350/3
f 505/350/3 507/397/3 509/394/3
f 521/395/6 419/355/6 519/351/6
f 519/351/6 520/394/6 521/395/6
f 537/374/8 448/412/8 447/411/8
f 447/411/8 536/340/8 537/374/8
f 552/340/10 468/402/10 473/401/10
f 473/401/10 550/374/10 552/340/10
f 1016/808/5 355/807/5 354/806/5
f 354/806/5 1015/488/5 1016/808/5
f 1019/810/6 510/809/6 355/413/6
f 355/413/6 1016/435/6 1019/810/6
f 1017/488/2 562/806/2 510/811/2
f 510/811/2 1019/812/2 1017/488/2
f 508/497/5 1016/808/5 1015/488/5
f 1015/488/5 505/490/5 508/497/5
f 509/105/6 1019/810/6 1016/435/6
f 1016/435/6 508/93/6 509/105/6
f 507/490/2 1017/488/2 1019/812/2
f 1019/812/2 509/498/2 507/490/2

