# ProBuilder 5.2.3
# https://unity3d.com/unity/features/worldbuilding/probuilder
# 2/23/2025 11:51:04 PM

mtllib ./Machine.mtl
o Machine

g DevCube (1)
v 0.5 0 4.5
v -8 0 4.5
v 0.5 2 4.5
v -8 2 4.5
v -8 0 -0.5
v -8 2 -0.5
v 0.5 0 -0.5
v 0.5 2 -0.5
v -1.25 7.75 2.5
v -8.75 7.75 2.5
v -1.25 8.75 2.5
v -8.75 8.75 2.5
v -8.75 7.75 1.5
v -8.75 8.75 1.5
v -1.25 7.75 1.5
v -1.25 8.75 1.5
v -8.700001 0 1.849998
v -8.700001 2.666667 1.849998
v -8.524265 0 2.274265
v -8.524265 2.666667 2.274265
v -8.099998 0 2.450001
v -8.099998 2.666667 2.450001
v -7.675735 0 2.274265
v -7.675735 2.666667 2.274265
v -7.5 0 1.849998
v -7.5 2.666667 1.849998
v -7.675735 0 1.425735
v -7.675735 2.666667 1.425735
v -8.099998 0 1.25
v -8.099998 2.666667 1.25
v -8.524265 0 1.425735
v -8.524265 2.666667 1.425735
v -8.700001 5.333333 1.849998
v -8.524265 5.333333 2.274265
v -8.100002 5.333334 2.450001
v -7.675735 5.333334 2.274265
v -7.5 5.333334 1.849998
v -7.675735 5.333334 1.425735
v -8.100002 5.333334 1.25
v -8.524265 5.333333 1.425735
v -8.700005 8 1.849998
v -8.524265 8 2.274265
v -8.100002 8 2.450001
v -7.675739 8 2.274265
v -7.5 8 1.849998
v -7.675739 8 1.425735
v -8.100002 8 1.25
v -8.524265 8 1.425735
v -8.099998 0 1.849998
v -8.100002 8 1.849998
v 1.749985 6.25 2
v 2.416651 6.250002 2
v 1.749987 5.371321 4.121323
v 2.416653 5.371323 4.121323
v 1.749992 3.25 5
v 2.416658 3.250002 5
v 1.749998 1.12868 4.121323
v 2.416664 1.128682 4.121323
v 1.75 0.25 2
v 2.416666 0.2500019 2
v 1.749998 1.128679 -0.1213188
v 2.416664 1.128681 -0.1213188
v 1.749992 3.25 -1
v 2.416658 3.250002 -1
v 1.749987 5.37132 -0.1213188
v 2.416653 5.371322 -0.1213188
v 3.083317 6.250004 2
v 3.083321 5.371325 4.121323
v 3.083324 3.250003 5
v 3.083332 1.128683 4.121323
v 3.083334 0.2500038 2
v 3.083332 1.128683 -0.1213188
v 3.083324 3.250004 -1
v 3.083321 5.371324 -0.1213188
v 3.749985 6.250006 2
v 3.749987 5.371326 4.121323
v 3.749992 3.250006 5
v 3.749998 1.128685 4.121323
v 3.75 0.2500057 2
v 3.749998 1.128685 -0.1213188
v 3.749992 3.250006 -1
v 3.749987 5.371325 -0.1213188
v 1.749992 3.25 2
v 3.749992 3.250006 2
v -1.144409E-05 5.25 2
v 0.3333225 5.250001 2
v -9.536743E-06 4.664213 3.414215
v 0.3333244 4.664215 3.414215
v -5.722046E-06 3.25 4
v 0.3333282 3.250001 4
v -1.907349E-06 1.835786 3.414215
v 0.3333321 1.835787 3.414215
v 0 1.25 2
v 0.333334 1.250001 2
v -1.907349E-06 1.835786 0.5857849
v 0.3333321 1.835787 0.5857849
v -5.722046E-06 3.25 0
v 0.3333282 3.250001 0
v -9.536743E-06 4.664213 0.5857849
v 0.3333244 4.664214 0.5857849
v 0.6666565 5.250002 2
v 0.6666565 4.664215 3.414215
v 0.6666603 3.250002 4
v 0.6666641 1.835788 3.414215
v 0.666666 1.250002 2
v 0.6666641 1.835788 0.5857849
v 0.6666603 3.250002 0
v 0.6666565 4.664215 0.5857849
v 0.9999886 5.250003 2
v 0.9999905 4.664217 3.414215
v 0.9999943 3.250003 4
v 0.9999981 1.835789 3.414215
v 1 1.250003 2
v 0.9999981 1.835789 0.5857849
v 0.9999943 3.250003 0
v 0.9999905 4.664216 0.5857849
v -5.722046E-06 3.25 2
v 0.9999943 3.250003 2
v -2.75 4 2
v -2.75 5.333333 2
v -2.457108 4 2.707108
v -2.457108 5.333333 2.707108
v -1.75 4 3
v -1.75 5.333333 3
v -1.042892 4 2.707108
v -1.042894 5.333333 2.707108
v -0.75 4 2
v -0.75 5.333334 2
v -1.042892 4 1.292892
v -1.042894 5.333333 1.292892
v -1.75 4 1
v -1.75 5.333333 1
v -2.457108 4 1.292892
v -2.457108 5.333333 1.292892
v -2.75 6.666666 2
v -2.457108 6.666666 2.707108
v -1.75 6.666666 3
v -1.042894 6.666667 2.707108
v -0.75 6.666667 2
v -1.042894 6.666667 1.292892
v -1.75 6.666666 1
v -2.457108 6.666666 1.292892
v -2.75 8 2
v -2.457108 8 2.707108
v -1.75 8 3
v -1.042894 8 2.707108
v -0.7500019 8 2
v -1.042894 8 1.292892
v -1.750002 8 1
v -2.457108 8 1.292892
v -1.75 4 2
v -1.750002 8 2
v -5 4 2
v -5 5.333333 2
v -4.707108 4 2.707108
v -4.707108 5.333333 2.707108
v -4 4 3
v -4 5.333333 3
v -3.292892 4 2.707108
v -3.292894 5.333333 2.707108
v -3 4 2
v -3 5.333334 2
v -3.292892 4 1.292892
v -3.292892 5.333333 1.292892
v -4 4 1
v -4 5.333333 1
v -4.707108 4 1.292892
v -4.707108 5.333333 1.292892
v -5 6.666666 2
v -4.707108 6.666666 2.707108
v -4 6.666666 3
v -3.292894 6.666667 2.707108
v -3 6.666667 2
v -3.292894 6.666667 1.292892
v -4 6.666666 1
v -4.707108 6.666666 1.292892
v -5 8 2
v -4.707108 8 2.707108
v -4 8 3
v -3.292894 8 2.707108
v -3 8 2
v -3.292894 8 1.292892
v -4 8 1
v -4.707108 8 1.292892
v -4 4 2
v -4 8 2
v -7.25 4 2
v -7.25 5.333333 2
v -6.957108 4 2.707108
v -6.957108 5.333333 2.707108
v -6.25 4 3
v -6.25 5.333333 3
v -5.542892 4 2.707108
v -5.542892 5.333333 2.707108
v -5.25 4 2
v -5.25 5.333334 2
v -5.542892 4 1.292892
v -5.542892 5.333333 1.292892
v -6.25 4 1
v -6.25 5.333333 1
v -6.957108 4 1.292892
v -6.957108 5.333333 1.292892
v -7.25 6.666666 2
v -6.957108 6.666666 2.707108
v -6.25 6.666666 3
v -5.542892 6.666667 2.707108
v -5.25 6.666667 2
v -5.542892 6.666667 1.292892
v -6.25 6.666666 1
v -6.957108 6.666666 1.292892
v -7.25 8 2
v -6.957108 8 2.707108
v -6.25 8 3
v -5.542892 8 2.707108
v -5.25 8 2
v -5.542892 8 1.292892
v -6.25 8 1
v -6.957108 8 1.292892
v -6.25 4 2
v -6.25 8 2
v 4 0 5.5
v 0 0 5.5
v 4 1 5.5
v 0 1 5.5
v 0 0 -1.5
v 0 1 -1.5
v 4 0 -1.5
v 4 1 -1.5
v -0.5 2 3.25
v -7.5 2 3.25
v -0.5 4 3.25
v -7.5 4 3.25
v -7.5 2 0.75
v -7.5 4 0.75
v -0.5 2 0.75
v -0.5 4 0.75

vt 0.5 0
vt -8 0
vt 0.5 2
vt -8 2
vt 4.5 0
vt -0.5 0
vt 4.5 2
vt -0.5 2
vt 8 0
vt 8 2
vt -4.5 0
vt -4.5 2
vt -0.5 4.5
vt 8 4.5
vt -0.5 -0.5
vt 8 -0.5
vt 0.5 -0.5
vt -8 -0.5
vt 0.5 4.5
vt -8 4.5
vt -0.5 1
vt -8 1
vt 2.5 0
vt 1.5 0
vt 2.5 1
vt 1.5 1
vt 8 1
vt 0.5 1
vt -1.5 0
vt -2.5 0
vt -1.5 1
vt -2.5 1
vt 0.5 2.5
vt 8 2.5
vt 0.5 1.5
vt 8 1.5
vt -0.5 1.5
vt -8 1.5
vt -0.5 2.5
vt -8 2.5
vt 0.1585133 1.192093E-07
vt 0.1585133 0.6666667
vt 0.9238797 1.192093E-07
vt 0.9238797 0.6666667
vt -0.9238796 1.192093E-07
vt -0.9238796 0.6666667
vt -0.1585121 1.192093E-07
vt -0.1585121 0.6666667
vt -1.689247 0
vt -1.689247 0.6666666
vt 1.689247 1.192093E-07
vt 1.689247 0.6666667
vt 0.1585133 1.333333
vt 0.9238797 1.333333
vt -0.9238796 1.333333
vt -0.1585188 1.333333
vt -1.689247 1.333333
vt 1.689246 1.333333
vt 0.1585126 2
vt 0.9238799 2
vt -0.9238796 2
vt -0.1585121 2
vt -1.689246 2
vt 1.689247 2
vt -2 1
vt -1 1
vt -1.707108 1.707107
vt 2 1
vt 1 1
vt 1.707102 1.707107
vt -1 2
vt 1 2
vt -0.2928925 1.707108
vt 0.2928925 1.707108
vt -1 0.9999998
vt 0 0.9999998
vt 0 1
vt -0.2928934 0.2928934
vt 0.2928982 0.2928932
vt -1 0
vt 1 0
vt -1.707108 0.2928932
vt 1.707106 0.2928932
vt 0.1585121 2
vt 0.9238796 1.999999
vt -0.9238799 1.999997
vt -1.689245 1.999998
vt -0.1585121 2
vt 1.689246 1.999997
vt -1.653733 0.521374
vt -0.8337879 0.6028463
vt -1.516623 1.582305
vt 2 0.9999998
vt -0.9999999 1
vt -0.9999999 2
vt 1.600567 1.863213
vt 0.568387 1.821894
vt 1.206723 2.575799
vt -0.7932773 2.575799
vt -1.431613 1.821894
vt -0.3994327 1.863213
vt 1 2
vt 1 0.9999999
vt 0.4833771 1.582305
vt 1.166212 0.6028463
vt 0.3462673 0.5213741
vt -0.3462664 1.478625
vt -1.166212 1.397154
vt -0.4833778 0.4176943
vt 0.9999999 0.9999999
vt 0.3994343 0.1367883
vt 1.431614 0.1781066
vt 0.7932783 -0.5757989
vt -1.206722 -0.5757995
vt -0.5683858 0.1781054
vt -1.600565 0.1367886
vt 0.9999999 5.960464E-08
vt -2 1
vt 1.516622 0.4176937
vt 0.8337883 1.397154
vt 1.653733 1.478625
vt -0.9999998 0
vt -2 0.9999998
vt 0.9999981 2
vt 0.9999995 1
vt -0.9999996 0.9999999
vt 0 0
vt -4 0
vt -4 1
vt 5.5 0
vt 5.5 1
vt 4 0
vt 4 1
vt -5.5 0
vt -5.5 1
vt 0 5.5
vt 4 5.5
vt 0 -1.5
vt 4 -1.5
vt -4 -1.5
vt -4 5.5
vt -7.5 0
vt -7.5 2
vt 3.25 0
vt 0.75 0
vt 3.25 2
vt 0.75 2
vt 7.5 0
vt 7.5 2
vt -0.75 0
vt -3.25 0
vt -0.75 2
vt -3.25 2
vt 0.5 3.25
vt 7.5 3.25
vt 0.5 0.75
vt 7.5 0.75
vt -0.5 0.75
vt -7.5 0.75
vt -0.5 3.25
vt -7.5 3.25

vn 0 0 1
vn -1 0 0
vn 0 0 -1
vn 1 0 0
vn 0 1 0
vn 0 -1 0
vn -0.9238808 0 0.3826805
vn -0.3826805 0 0.9238808
vn 0.3826834 0 0.9238796
vn 0.9238808 0 0.3826805
vn 0.9238796 0 -0.3826834
vn 0.3826834 0 -0.9238796
vn -0.3826805 0 -0.9238808
vn -0.9238796 0 -0.3826834
vn -2.643244E-06 0.9238797 0.3826829
vn -1.094865E-06 0.3826825 0.9238799
vn 1.094865E-06 -0.3826826 0.9238799
vn 2.643244E-06 -0.9238797 0.3826831
vn 2.643243E-06 -0.9238795 -0.3826835
vn 1.094869E-06 -0.3826839 -0.9238793
vn -1.094869E-06 0.3826841 -0.9238793
vn -2.643243E-06 0.9238793 -0.3826839

usemtl DevFloor
f 17/65/6 49/66/6 19/67/6
f 19/67/6 49/66/6 21/71/6
f 21/71/6 49/66/6 23/73/6
f 23/73/6 49/75/6 25/76/6
f 25/77/6 49/66/6 27/78/6
f 27/78/6 49/66/6 29/80/6
f 29/80/6 49/66/6 31/82/6
f 31/82/6 49/66/6 17/65/6
f 42/70/5 50/69/5 41/68/5
f 43/72/5 50/69/5 42/70/5
f 44/74/5 50/69/5 43/72/5
f 45/77/5 50/69/5 44/74/5
f 46/79/5 50/69/5 45/77/5
f 47/81/5 50/69/5 46/79/5
f 48/83/5 50/69/5 47/81/5
f 41/68/5 50/69/5 48/83/5
f 51/90/2 83/91/2 53/92/2
f 53/67/2 83/94/2 55/95/2
f 55/99/2 83/100/2 57/101/2
f 57/73/2 83/66/2 59/77/2
f 59/107/2 83/108/2 61/109/2
f 61/78/2 83/66/2 63/80/2
f 63/114/2 83/115/2 65/116/2
f 65/82/2 83/94/2 51/118/2
f 76/70/4 84/69/4 75/93/4
f 77/98/4 84/97/4 76/96/4
f 78/74/4 84/103/4 77/102/4
f 79/106/4 84/105/4 78/104/4
f 80/79/4 84/110/4 79/77/4
f 81/113/4 84/112/4 80/111/4
f 82/83/4 84/69/4 81/117/4
f 75/121/4 84/120/4 82/119/4
f 85/90/2 117/91/2 87/92/2
f 87/67/2 117/66/2 89/71/2
f 89/99/2 117/100/2 91/101/2
f 91/73/2 117/94/2 93/77/2
f 93/107/2 117/108/2 95/109/2
f 95/78/2 117/94/2 97/122/2
f 97/114/2 117/115/2 99/116/2
f 99/82/2 117/66/2 85/65/2
f 110/70/4 118/69/4 109/68/4
f 111/98/4 118/97/4 110/96/4
f 112/74/4 118/103/4 111/102/4
f 113/106/4 118/105/4 112/104/4
f 114/79/4 118/69/4 113/77/4
f 115/113/4 118/112/4 114/111/4
f 116/83/4 118/69/4 115/81/4
f 109/121/4 118/120/4 116/119/4
f 119/123/6 151/75/6 121/67/6
f 121/67/6 151/66/6 123/71/6
f 123/71/6 151/66/6 125/73/6
f 125/73/6 151/66/6 127/77/6
f 127/76/6 151/94/6 129/78/6
f 129/78/6 151/66/6 131/80/6
f 131/122/6 151/126/6 133/82/6
f 133/82/6 151/66/6 119/65/6
f 144/70/5 152/69/5 143/68/5
f 145/72/5 152/69/5 144/70/5
f 146/74/5 152/69/5 145/124/5
f 147/76/5 152/110/5 146/74/5
f 148/79/5 152/125/5 147/77/5
f 149/81/5 152/69/5 148/79/5
f 150/83/5 152/125/5 149/117/5
f 143/68/5 152/69/5 150/83/5
f 153/123/6 185/75/6 155/67/6
f 155/67/6 185/66/6 157/71/6
f 157/71/6 185/66/6 159/73/6
f 159/73/6 185/66/6 161/77/6
f 161/76/6 185/94/6 163/78/6
f 163/78/6 185/66/6 165/80/6
f 165/80/6 185/75/6 167/82/6
f 167/82/6 185/66/6 153/65/6
f 178/70/5 186/69/5 177/68/5
f 179/124/5 186/125/5 178/70/5
f 180/74/5 186/69/5 179/72/5
f 181/76/5 186/103/5 180/74/5
f 182/79/5 186/69/5 181/77/5
f 183/81/5 186/69/5 182/79/5
f 184/83/5 186/125/5 183/117/5
f 177/68/5 186/69/5 184/83/5
f 187/123/6 219/75/6 189/67/6
f 189/67/6 219/66/6 191/71/6
f 191/71/6 219/66/6 193/73/6
f 193/73/6 219/66/6 195/77/6
f 195/76/6 219/66/6 197/78/6
f 197/78/6 219/66/6 199/80/6
f 199/80/6 219/75/6 201/82/6
f 201/82/6 219/66/6 187/65/6
f 212/70/5 220/69/5 211/68/5
f 213/72/5 220/69/5 212/70/5
f 214/74/5 220/69/5 213/72/5
f 215/76/5 220/103/5 214/74/5
f 216/79/5 220/69/5 215/77/5
f 217/81/5 220/69/5 216/79/5
f 218/83/5 220/69/5 217/81/5
f 211/68/5 220/69/5 218/83/5
f 4/4/1 2/2/1 1/1/1
f 1/1/1 3/3/1 4/4/1
f 6/8/2 5/6/2 2/5/2
f 2/5/2 4/7/2 6/8/2
f 8/8/3 7/6/3 5/9/3
f 5/9/3 6/10/3 8/8/3
f 3/12/4 1/11/4 7/1/4
f 7/1/4 8/3/4 3/12/4
f 6/16/5 4/14/5 3/13/5
f 3/13/5 8/15/5 6/16/5
f 2/20/6 5/18/6 7/17/6
f 7/17/6 1/19/6 2/20/6
f 12/22/1 10/2/1 9/6/1
f 9/6/1 11/21/1 12/22/1
f 14/26/2 13/24/2 10/23/2
f 10/23/2 12/25/2 14/26/2
f 16/28/3 15/1/3 13/9/3
f 13/9/3 14/27/3 16/28/3
f 11/32/4 9/30/4 15/29/4
f 15/29/4 16/31/4 11/32/4
f 14/36/5 12/34/5 11/33/5
f 11/33/5 16/35/5 14/36/5
f 10/40/6 13/38/6 15/37/6
f 15/37/6 9/39/6 10/40/6
f 20/44/7 18/42/7 17/41/7
f 17/41/7 19/43/7 20/44/7
f 22/48/8 20/46/8 19/45/8
f 19/45/8 21/47/8 22/48/8
f 24/46/9 22/50/9 21/49/9
f 21/49/9 23/45/9 24/46/9
f 26/46/10 24/50/10 23/49/10
f 23/49/10 25/45/10 26/46/10
f 28/48/11 26/46/11 25/45/11
f 25/45/11 27/47/11 28/48/11
f 30/44/12 28/42/12 27/41/12
f 27/41/12 29/43/12 30/44/12
f 32/52/13 30/44/13 29/43/13
f 29/43/13 31/51/13 32/52/13
f 18/52/14 32/44/14 31/43/14
f 31/43/14 17/51/14 18/52/14
f 34/54/7 33/53/7 18/42/7
f 18/42/7 20/44/7 34/54/7
f 35/56/8 34/55/8 20/46/8
f 20/46/8 22/48/8 35/56/8
f 36/55/9 35/57/9 22/50/9
f 22/50/9 24/46/9 36/55/9
f 37/55/10 36/57/10 24/50/10
f 24/50/10 26/46/10 37/55/10
f 38/56/11 37/55/11 26/46/11
f 26/46/11 28/48/11 38/56/11
f 39/54/12 38/53/12 28/42/12
f 28/42/12 30/44/12 39/54/12
f 40/58/13 39/54/13 30/44/13
f 30/44/13 32/52/13 40/58/13
f 33/58/14 40/54/14 32/44/14
f 32/44/14 18/52/14 33/58/14
f 42/60/7 41/59/7 33/53/7
f 33/53/7 34/54/7 42/60/7
f 43/62/8 42/61/8 34/55/8
f 34/55/8 35/56/8 43/62/8
f 44/61/9 43/63/9 35/57/9
f 35/57/9 36/55/9 44/61/9
f 45/61/10 44/63/10 36/57/10
f 36/57/10 37/55/10 45/61/10
f 46/62/11 45/61/11 37/55/11
f 37/55/11 38/56/11 46/62/11
f 47/60/12 46/59/12 38/53/12
f 38/53/12 39/54/12 47/60/12
f 48/64/13 47/60/13 39/54/13
f 39/54/13 40/58/13 48/64/13
f 41/64/14 48/60/14 40/54/14
f 40/54/14 33/58/14 41/64/14
f 54/44/15 52/42/15 51/41/15
f 51/41/15 53/43/15 54/44/15
f 56/48/16 54/46/16 53/45/16
f 53/45/16 55/47/16 56/48/16
f 58/46/17 56/50/17 55/49/17
f 55/49/17 57/45/17 58/46/17
f 60/46/18 58/50/18 57/49/18
f 57/49/18 59/45/18 60/46/18
f 62/48/19 60/46/19 59/45/19
f 59/45/19 61/47/19 62/48/19
f 64/44/20 62/42/20 61/41/20
f 61/41/20 63/43/20 64/44/20
f 66/52/21 64/44/21 63/43/21
f 63/43/21 65/51/21 66/52/21
f 52/52/22 66/44/22 65/43/22
f 65/43/22 51/51/22 52/52/22
f 68/54/15 67/53/15 52/42/15
f 52/42/15 54/44/15 68/54/15
f 69/56/16 68/55/16 54/46/16
f 54/46/16 56/48/16 69/56/16
f 70/55/17 69/57/17 56/50/17
f 56/50/17 58/46/17 70/55/17
f 71/55/18 70/57/18 58/50/18
f 58/50/18 60/46/18 71/55/18
f 72/56/19 71/55/19 60/46/19
f 60/46/19 62/48/19 72/56/19
f 73/54/20 72/53/20 62/42/20
f 62/42/20 64/44/20 73/54/20
f 74/58/21 73/54/21 64/44/21
f 64/44/21 66/52/21 74/58/21
f 67/58/22 74/54/22 66/44/22
f 66/44/22 52/52/22 67/58/22
f 76/85/15 75/84/15 67/53/15
f 67/53/15 68/54/15 76/85/15
f 77/62/16 76/86/16 68/55/16
f 68/55/16 69/56/16 77/62/16
f 78/61/17 77/87/17 69/57/17
f 69/57/17 70/55/17 78/61/17
f 79/86/18 78/87/18 70/57/18
f 70/57/18 71/55/18 79/86/18
f 80/88/19 79/86/19 71/55/19
f 71/55/19 72/56/19 80/88/19
f 81/85/20 80/59/20 72/53/20
f 72/53/20 73/54/20 81/85/20
f 82/89/21 81/60/21 73/54/21
f 73/54/21 74/58/21 82/89/21
f 75/89/22 82/85/22 74/54/22
f 74/54/22 67/58/22 75/89/22
f 88/44/15 86/42/15 85/41/15
f 85/41/15 87/43/15 88/44/15
f 90/48/16 88/46/16 87/45/16
f 87/45/16 89/47/16 90/48/16
f 92/46/17 90/50/17 89/49/17
f 89/49/17 91/45/17 92/46/17
f 94/46/18 92/50/18 91/49/18
f 91/49/18 93/45/18 94/46/18
f 96/48/19 94/46/19 93/45/19
f 93/45/19 95/47/19 96/48/19
f 98/44/20 96/42/20 95/41/20
f 95/41/20 97/43/20 98/44/20
f 100/52/21 98/44/21 97/43/21
f 97/43/21 99/51/21 100/52/21
f 86/52/22 100/44/22 99/43/22
f 99/43/22 85/51/22 86/52/22
f 102/54/15 101/53/15 86/42/15
f 86/42/15 88/44/15 102/54/15
f 103/56/16 102/55/16 88/46/16
f 88/46/16 90/48/16 103/56/16
f 104/55/17 103/57/17 90/50/17
f 90/50/17 92/46/17 104/55/17
f 105/55/18 104/57/18 92/50/18
f 92/50/18 94/46/18 105/55/18
f 106/56/19 105/55/19 94/46/19
f 94/46/19 96/48/19 106/56/19
f 107/54/20 106/53/20 96/42/20
f 96/42/20 98/44/20 107/54/20
f 108/58/21 107/54/21 98/44/21
f 98/44/21 100/52/21 108/58/21
f 101/58/22 108/54/22 100/44/22
f 100/44/22 86/52/22 101/58/22
f 110/60/15 109/59/15 101/53/15
f 101/53/15 102/54/15 110/60/15
f 111/62/16 110/86/16 102/55/16
f 102/55/16 103/56/16 111/62/16
f 112/86/17 111/87/17 103/57/17
f 103/57/17 104/55/17 112/86/17
f 113/86/18 112/87/18 104/57/18
f 104/57/18 105/55/18 113/86/18
f 114/88/19 113/86/19 105/55/19
f 105/55/19 106/56/19 114/88/19
f 115/85/20 114/84/20 106/53/20
f 106/53/20 107/54/20 115/85/20
f 116/89/21 115/85/21 107/54/21
f 107/54/21 108/58/21 116/89/21
f 109/64/22 116/60/22 108/54/22
f 108/54/22 101/58/22 109/64/22
f 122/44/7 120/42/7 119/41/7
f 119/41/7 121/43/7 122/44/7
f 124/48/8 122/46/8 121/45/8
f 121/45/8 123/47/8 124/48/8
f 126/46/9 124/50/9 123/49/9
f 123/49/9 125/45/9 126/46/9
f 128/46/10 126/50/10 125/49/10
f 125/49/10 127/45/10 128/46/10
f 130/48/11 128/46/11 127/45/11
f 127/45/11 129/47/11 130/48/11
f 132/44/12 130/42/12 129/41/12
f 129/41/12 131/43/12 132/44/12
f 134/52/13 132/44/13 131/43/13
f 131/43/13 133/51/13 134/52/13
f 120/52/14 134/44/14 133/43/14
f 133/43/14 119/51/14 120/52/14
f 136/54/7 135/53/7 120/42/7
f 120/42/7 122/44/7 136/54/7
f 137/56/8 136/55/8 122/46/8
f 122/46/8 124/48/8 137/56/8
f 138/55/9 137/57/9 124/50/9
f 124/50/9 126/46/9 138/55/9
f 139/55/10 138/57/10 126/50/10
f 126/50/10 128/46/10 139/55/10
f 140/56/11 139/55/11 128/46/11
f 128/46/11 130/48/11 140/56/11
f 141/54/12 140/53/12 130/42/12
f 130/42/12 132/44/12 141/54/12
f 142/58/13 141/54/13 132/44/13
f 132/44/13 134/52/13 142/58/13
f 135/58/14 142/54/14 134/44/14
f 134/44/14 120/52/14 135/58/14
f 144/60/7 143/59/7 135/53/7
f 135/53/7 136/54/7 144/60/7
f 145/62/8 144/61/8 136/55/8
f 136/55/8 137/56/8 145/62/8
f 146/61/9 145/63/9 137/57/9
f 137/57/9 138/55/9 146/61/9
f 147/61/10 146/63/10 138/57/10
f 138/57/10 139/55/10 147/61/10
f 148/88/11 147/86/11 139/55/11
f 139/55/11 140/56/11 148/88/11
f 149/60/12 148/59/12 140/53/12
f 140/53/12 141/54/12 149/60/12
f 150/64/13 149/60/13 141/54/13
f 141/54/13 142/58/13 150/64/13
f 143/64/14 150/60/14 142/54/14
f 142/54/14 135/58/14 143/64/14
f 156/44/7 154/42/7 153/41/7
f 153/41/7 155/43/7 156/44/7
f 158/48/8 156/46/8 155/45/8
f 155/45/8 157/47/8 158/48/8
f 160/46/9 158/50/9 157/49/9
f 157/49/9 159/45/9 160/46/9
f 162/46/10 160/50/10 159/49/10
f 159/49/10 161/45/10 162/46/10
f 164/48/11 162/46/11 161/45/11
f 161/45/11 163/47/11 164/48/11
f 166/44/12 164/42/12 163/41/12
f 163/41/12 165/43/12 166/44/12
f 168/52/13 166/44/13 165/43/13
f 165/43/13 167/51/13 168/52/13
f 154/52/14 168/44/14 167/43/14
f 167/43/14 153/51/14 154/52/14
f 170/54/7 169/53/7 154/42/7
f 154/42/7 156/44/7 170/54/7
f 171/56/8 170/55/8 156/46/8
f 156/46/8 158/48/8 171/56/8
f 172/55/9 171/57/9 158/50/9
f 158/50/9 160/46/9 172/55/9
f 173/55/10 172/57/10 160/50/10
f 160/50/10 162/46/10 173/55/10
f 174/56/11 173/55/11 162/46/11
f 162/46/11 164/48/11 174/56/11
f 175/54/12 174/53/12 164/42/12
f 164/42/12 166/44/12 175/54/12
f 176/58/13 175/54/13 166/44/13
f 166/44/13 168/52/13 176/58/13
f 169/58/14 176/54/14 168/44/14
f 168/44/14 154/52/14 169/58/14
f 178/60/7 177/59/7 169/53/7
f 169/53/7 170/54/7 178/60/7
f 179/62/8 178/61/8 170/55/8
f 170/55/8 171/56/8 179/62/8
f 180/61/9 179/63/9 171/57/9
f 171/57/9 172/55/9 180/61/9
f 181/61/10 180/63/10 172/57/10
f 172/57/10 173/55/10 181/61/10
f 182/62/11 181/61/11 173/55/11
f 173/55/11 174/56/11 182/62/11
f 183/60/12 182/59/12 174/53/12
f 174/53/12 175/54/12 183/60/12
f 184/64/13 183/60/13 175/54/13
f 175/54/13 176/58/13 184/64/13
f 177/64/14 184/60/14 176/54/14
f 176/54/14 169/58/14 177/64/14
f 190/44/7 188/42/7 187/41/7
f 187/41/7 189/43/7 190/44/7
f 192/48/8 190/46/8 189/45/8
f 189/45/8 191/47/8 192/48/8
f 194/46/9 192/50/9 191/49/9
f 191/49/9 193/45/9 194/46/9
f 196/46/10 194/50/10 193/49/10
f 193/49/10 195/45/10 196/46/10
f 198/48/11 196/46/11 195/45/11
f 195/45/11 197/47/11 198/48/11
f 200/44/12 198/42/12 197/41/12
f 197/41/12 199/43/12 200/44/12
f 202/52/13 200/44/13 199/43/13
f 199/43/13 201/51/13 202/52/13
f 188/52/14 202/44/14 201/43/14
f 201/43/14 187/51/14 188/52/14
f 204/54/7 203/53/7 188/42/7
f 188/42/7 190/44/7 204/54/7
f 205/56/8 204/55/8 190/46/8
f 190/46/8 192/48/8 205/56/8
f 206/55/9 205/57/9 192/50/9
f 192/50/9 194/46/9 206/55/9
f 207/55/10 206/57/10 194/50/10
f 194/50/10 196/46/10 207/55/10
f 208/56/11 207/55/11 196/46/11
f 196/46/11 198/48/11 208/56/11
f 209/54/12 208/53/12 198/42/12
f 198/42/12 200/44/12 209/54/12
f 210/58/13 209/54/13 200/44/13
f 200/44/13 202/52/13 210/58/13
f 203/58/14 210/54/14 202/44/14
f 202/44/14 188/52/14 203/58/14
f 212/60/7 211/59/7 203/53/7
f 203/53/7 204/54/7 212/60/7
f 213/62/8 212/61/8 204/55/8
f 204/55/8 205/56/8 213/62/8
f 214/61/9 213/63/9 205/57/9
f 205/57/9 206/55/9 214/61/9
f 215/61/10 214/63/10 206/57/10
f 206/57/10 207/55/10 215/61/10
f 216/62/11 215/61/11 207/55/11
f 207/55/11 208/56/11 216/62/11
f 217/60/12 216/59/12 208/53/12
f 208/53/12 209/54/12 217/60/12
f 218/64/13 217/60/13 209/54/13
f 209/54/13 210/58/13 218/64/13
f 211/64/14 218/60/14 210/54/14
f 210/54/14 203/58/14 211/64/14
f 224/129/1 222/128/1 221/127/1
f 221/127/1 223/77/1 224/129/1
f 226/31/2 225/29/2 222/130/2
f 222/130/2 224/131/2 226/31/2
f 228/77/3 227/127/3 225/132/3
f 225/132/3 226/133/3 228/77/3
f 223/135/4 221/134/4 227/24/4
f 227/24/4 228/26/4 223/135/4
f 226/139/5 224/137/5 223/136/5
f 223/136/5 228/138/5 226/139/5
f 222/141/6 225/140/6 227/138/6
f 227/138/6 221/136/6 222/141/6
f 232/143/1 230/142/1 229/6/1
f 229/6/1 231/8/1 232/143/1
f 234/147/2 233/145/2 230/144/2
f 230/144/2 232/146/2 234/147/2
f 236/3/3 235/1/3 233/148/3
f 233/148/3 234/149/3 236/3/3
f 231/153/4 229/151/4 235/150/4
f 235/150/4 236/152/4 231/153/4
f 234/157/5 232/155/5 231/154/5
f 231/154/5 236/156/5 234/157/5
f 230/161/6 233/159/6 235/158/6
f 235/158/6 229/160/6 230/161/6

