# ProBuilder 5.2.3
# https://unity3d.com/unity/features/worldbuilding/probuilder
# 3/8/2025 9:16:07 PM

mtllib ./StairBlock.mtl
o StairBlock

g Stair Block
v 0 0.25 4
v -4 0.25 4
v 0 0.5 4
v -4 0.5 4
v -4 0.25 1
v -4 0.25 0.5
v -4 0.5 1
v -4 0.5 0.5
v 0 0.25 0.5
v 0 0.5 0.5
v 0 0.25 1
v 0 0.5 1
v 0 0 0.5
v -4 0 0.5
v 0 0 1
v -4 0 1
v 0 0 1.5
v -4 0 1.5
v 0 0.5 1.5
v 0 0.25 1.5
v -4 0.25 1.5
v -4 0.5 1.5
v -4 0.75 1
v 0 0.75 1
v -4 0.75 1.5
v 0 0.75 1.5
v 0 0.75 4
v -4 0.75 4
v 0 0.75 2
v 0 0.5 2
v -4 0.5 2
v -4 0.75 2
v -4 1 1.5
v 0 1 1.5
v -4 1 2
v 0 1 2
v 0 0 2
v -4 0 2
v 0 0.25 2
v -4 0.25 2
v 0 1 4
v -4 1 4
v -4 0.75 2.5
v -4 1 2.5
v 0 0.75 2.5
v 0 0.5 2.5
v -4 0.5 2.5
v 0 1 2.5
v 0 0 2.5
v -4 0 2.5
v 0 0.25 2.5
v -4 0.25 2.5
v -4 1.25 2
v 0 1.25 2
v -4 1.25 2.5
v 0 1.25 2.5
v 0 1.25 4
v -4 1.25 4
v 0 0 3
v -4 0 3
v 0 1 3
v 0 0.75 3
v -4 0.75 3
v -4 1 3
v 0 1.25 3
v -4 1.25 3
v 0 0.5 3
v -4 0.5 3
v 0 0.25 3
v -4 0.25 3
v -4 1.5 2.5
v 0 1.5 2.5
v -4 1.5 3
v 0 1.5 3
v 0 1.5 4
v -4 1.5 4
v 0 0 3.5
v -4 0 3.5
v 0 1 3.5
v 0 0.75 3.5
v -4 0.75 3.5
v -4 1 3.5
v 0 1.25 3.5
v -4 1.25 3.5
v 0 0.5 3.5
v -4 0.5 3.5
v 0 0.25 3.5
v -4 0.25 3.5
v 0 1.5 3.5
v -4 1.5 3.5
v -4 1.75 3
v 0 1.75 3
v -4 1.75 3.5
v 0 1.75 3.5
v 0 1.75 4
v -4 1.75 4
v 0 0 4
v -4 0 4
v -4 2 3.5
v 0 2 3.5
v -4 2 4
v 0 2 4
v 0 0.25 0
v -4 0.25 0
v 0 0 0
v -4 0 0

vt 0 0.25
vt -4 0.25
vt 0 0.5
vt -4 0.5
vt 1 0.25
vt 0.5 0.25
vt 1 0.5
vt 0.5 0.5
vt 4 0.25
vt 4 0.5
vt -0.5 0.25
vt -1 0.25
vt -0.5 0.5
vt -1 0.5
vt 0 1
vt 4 1
vt -4 1
vt 0 1.5
vt -4 1.5
vt -1.5 0.5
vt -1.5 0.25
vt 1.5 0.25
vt 1.5 0.5
vt 4 1.5
vt 4 0.75
vt 0 0.75
vt 1.5 0.75
vt 1 0.75
vt -1 0.75
vt -1.5 0.75
vt -4 0.75
vt -2 0.75
vt -2 0.5
vt 2 0.5
vt 2 0.75
vt 4 2
vt 0 2
vt -4 2
vt -2 0.25
vt 2 0.25
vt 2 1
vt 1.5 1
vt -1.5 1
vt -2 1
vt 2.5 0.75
vt 2.5 1
vt -2.5 0.75
vt -2.5 0.5
vt 2.5 0.5
vt -2.5 1
vt 0 2.5
vt -4 2.5
vt -2.5 0.25
vt 2.5 0.25
vt 4 2.5
vt 4 1.25
vt 0 1.25
vt 2.5 1.25
vt 2 1.25
vt -2 1.25
vt -2.5 1.25
vt -4 1.25
vt 0 3
vt -4 3
vt -3 1
vt -3 0.75
vt 3 0.75
vt 3 1
vt -3 1.25
vt 3 1.25
vt -3 0.5
vt 3 0.5
vt -3 0.25
vt 3 0.25
vt 4 3
vt 3 1.5
vt 2.5 1.5
vt -2.5 1.5
vt -3 1.5
vt 0 3.5
vt -4 3.5
vt -3.5 1
vt -3.5 0.75
vt 3.5 0.75
vt 3.5 1
vt -3.5 1.25
vt 3.5 1.25
vt -3.5 0.5
vt 3.5 0.5
vt -3.5 0.25
vt 3.5 0.25
vt -3.5 1.5
vt 3.5 1.5
vt 4 3.5
vt 4 1.75
vt 0 1.75
vt 3.5 1.75
vt 3 1.75
vt -3 1.75
vt -3.5 1.75
vt -4 1.75
vt 0 4
vt -4 4
vt 4 4
vt 3.5 2
vt -3.5 2
vt 1.5 0
vt 2 0
vt -1.5 0
vt -1 0
vt 1 0
vt -2 0
vt 0 0
vt 4 0
vt -0.5 0
vt 0.5 0
vt -2.5 0
vt 2.5 0
vt -3 0
vt 3 0
vt -3.5 0
vt 3.5 0
vt -4 0

vn 0 0 1
vn -1 0 0
vn 0 0 -1
vn 1 0 0
vn 0 1 0
vn 0 -1 0

usemtl IndustrialCeiling
f 3/3/1 4/4/1 2/2/1 1/1/1
f 7/7/2 8/8/2 6/6/2 5/5/2
f 8/10/3 10/3/3 9/1/3 6/9/3
f 10/13/4 12/14/4 11/12/4 9/11/4
f 10/3/5 8/10/5 7/16/5 12/15/5
f 15/15/6 16/17/6 14/4/6 13/3/6
f 17/18/6 18/19/6 16/17/6 15/15/6
f 19/20/4 20/21/4 11/12/4 12/14/4
f 21/22/2 22/23/2 7/7/2 5/5/2
f 25/24/5 26/18/5 24/15/5 23/16/5
f 23/25/3 24/26/3 12/3/3 7/10/3
f 25/27/2 23/28/2 7/7/2 22/23/2
f 24/29/4 26/30/4 19/20/4 12/14/4
f 27/26/1 28/31/1 4/4/1 3/3/1
f 29/32/4 30/33/4 19/20/4 26/30/4
f 31/34/2 32/35/2 25/27/2 22/23/2
f 35/36/5 36/37/5 34/18/5 33/24/5
f 37/37/6 38/38/6 18/19/6 17/18/6
f 30/33/4 39/39/4 20/21/4 19/20/4
f 40/40/2 31/34/2 22/23/2 21/22/2
f 33/16/3 34/15/3 26/26/3 25/25/3
f 35/41/2 33/42/2 25/27/2 32/35/2
f 34/43/4 36/44/4 29/32/4 26/30/4
f 41/15/1 42/17/1 28/31/1 27/26/1
f 43/45/2 44/46/2 35/41/2 32/35/2
f 45/47/4 46/48/4 30/33/4 29/32/4
f 47/49/2 43/45/2 32/35/2 31/34/2
f 48/50/4 45/47/4 29/32/4 36/44/4
f 49/51/6 50/52/6 38/38/6 37/37/6
f 46/48/4 51/53/4 39/39/4 30/33/4
f 52/54/2 47/49/2 31/34/2 40/40/2
f 55/55/5 56/51/5 54/37/5 53/36/5
f 53/56/3 54/57/3 36/15/3 35/16/3
f 55/58/2 53/59/2 35/41/2 44/46/2
f 54/60/4 56/61/4 48/50/4 36/44/4
f 57/57/1 58/62/1 42/17/1 41/15/1
f 59/63/6 60/64/6 50/52/6 49/51/6
f 61/65/4 62/66/4 45/47/4 48/50/4
f 63/67/2 64/68/2 44/46/2 43/45/2
f 65/69/4 61/65/4 48/50/4 56/61/4
f 64/68/2 66/70/2 55/58/2 44/46/2
f 62/66/4 67/71/4 46/48/4 45/47/4
f 68/72/2 63/67/2 43/45/2 47/49/2
f 67/71/4 69/73/4 51/53/4 46/48/4
f 70/74/2 68/72/2 47/49/2 52/54/2
f 73/75/5 74/63/5 72/51/5 71/55/5
f 71/24/3 72/18/3 56/57/3 55/56/3
f 73/76/2 71/77/2 55/58/2 66/70/2
f 72/78/4 74/79/4 65/69/4 56/61/4
f 75/18/1 76/19/1 58/62/1 57/57/1
f 77/80/6 78/81/6 60/64/6 59/63/6
f 79/82/4 80/83/4 62/66/4 61/65/4
f 81/84/2 82/85/2 64/68/2 63/67/2
f 83/86/4 79/82/4 61/65/4 65/69/4
f 82/85/2 84/87/2 66/70/2 64/68/2
f 80/83/4 85/88/4 67/71/4 62/66/4
f 86/89/2 81/84/2 63/67/2 68/72/2
f 85/88/4 87/90/4 69/73/4 67/71/4
f 88/91/2 86/89/2 68/72/2 70/74/2
f 89/92/4 83/86/4 65/69/4 74/79/4
f 84/87/2 90/93/2 73/76/2 66/70/2
f 93/94/5 94/80/5 92/63/5 91/75/5
f 91/95/3 92/96/3 74/18/3 73/24/3
f 93/97/2 91/98/2 73/76/2 90/93/2
f 92/99/4 94/100/4 89/92/4 74/79/4
f 95/96/1 96/101/1 76/19/1 75/18/1
f 97/102/6 98/103/6 78/81/6 77/80/6
f 75/19/4 57/62/4 83/86/4 89/92/4
f 58/56/2 76/24/2 90/93/2 84/87/2
f 95/101/4 75/19/4 89/92/4 94/100/4
f 76/24/2 96/95/2 93/97/2 90/93/2
f 57/62/4 41/17/4 79/82/4 83/86/4
f 42/16/2 58/56/2 84/87/2 82/85/2
f 41/17/4 27/31/4 80/83/4 79/82/4
f 28/25/2 42/16/2 82/85/2 81/84/2
f 27/31/4 3/4/4 85/88/4 80/83/4
f 4/10/2 28/25/2 81/84/2 86/89/2
f 3/4/4 1/2/4 87/90/4 85/88/4
f 2/9/2 4/10/2 86/89/2 88/91/2
f 101/104/5 102/102/5 100/80/5 99/94/5
f 99/36/3 100/37/3 94/96/3 93/95/3
f 101/36/2 99/105/2 93/97/2 96/95/2
f 100/106/4 102/38/4 95/101/4 94/100/4
f 102/37/1 101/38/1 96/101/1 95/96/1
f 18/107/2 38/108/2 40/40/2 21/22/2
f 17/109/4 15/110/4 11/12/4 20/21/4
f 16/111/2 18/107/2 21/22/2 5/5/2
f 37/112/4 17/109/4 20/21/4 39/39/4
f 105/113/3 106/114/3 104/9/3 103/1/3
f 15/110/4 13/115/4 9/11/4 11/12/4
f 14/116/2 16/111/2 5/5/2 6/6/2
f 49/117/4 37/112/4 39/39/4 51/53/4
f 38/108/2 50/118/2 52/54/2 40/40/2
f 59/119/4 49/117/4 51/53/4 69/73/4
f 50/118/2 60/120/2 70/74/2 52/54/2
f 77/121/4 59/119/4 69/73/4 87/90/4
f 60/120/2 78/122/2 88/91/2 70/74/2
f 97/123/4 77/121/4 87/90/4 1/2/4
f 78/122/2 98/114/2 2/9/2 88/91/2
f 98/123/1 97/113/1 1/1/1 2/2/1
f 103/113/5 104/114/5 6/10/5 9/3/5
f 105/113/4 103/1/4 9/11/4 13/115/4
f 104/1/2 106/113/2 14/116/2 6/6/2
f 106/123/6 105/113/6 13/3/6 14/4/6

